<?xml version="1.0" encoding="UTF-8"?>
<!DOCTYPE svg PUBLIC "-//W3C//DTD SVG 1.1//EN" "http://www.w3.org/Graphics/SVG/1.1/DTD/svg11.dtd">
<!-- Creator: CorelDRAW X8 -->
<svg xmlns="http://www.w3.org/2000/svg" xml:space="preserve" width="150.806mm" height="32.9988mm" version="1.1" style="shape-rendering:geometricPrecision; text-rendering:geometricPrecision; image-rendering:optimizeQuality; fill-rule:evenodd; clip-rule:evenodd"
viewBox="0 0 13692 1901"
 xmlns:xlink="http://www.w3.org/1999/xlink">
 <defs>
  <style type="text/css">
   <![CDATA[
    .fil0 {fill:#E01919}
    .fil1 {fill:#E01919;fill-rule:nonzero}
   ]]>
  </style>
 </defs>
 <g id="Слой_x0020_1">
  <metadata id="CorelCorpID_0Corel-Layer"/>
  <path class="fil0" d="M589 753l290 0 0 630 -403 0c34,-70 66,-208 82,-290 19,-102 31,-222 31,-340zm529 1121l0 0 -49 0c-8,-2 -9,-9 -9,-29l0 -199 -756 0 0 228 -304 0 0 -491 123 0c15,-30 30,-55 46,-87 102,-215 96,-566 96,-806l938 0 0 893 167 0 0 491 -5 0 -4 0c-80,0 -162,-1 -243,0z"/>
  <path class="fil0" d="M6416 1071c0,-97 39,-180 88,-230 187,-190 575,-105 575,235 0,59 -21,131 -52,175 -8,12 -9,13 -17,22 -47,60 -134,120 -230,120 -116,0 -192,-12 -274,-95 -57,-57 -90,-143 -90,-227zm-333 -25l0 0c0,72 0,104 18,175l43 111c70,128 181,232 315,286 174,70 398,73 571,3 205,-82 383,-291 383,-520 0,-129 -6,-191 -64,-303 -104,-203 -340,-332 -569,-332l-6 0c-126,0 -194,4 -311,51 -58,24 -117,58 -163,99 -127,111 -217,250 -217,430z"/>
  <path class="fil0" d="M1998 1071c0,-97 38,-180 87,-230 188,-190 576,-105 576,235 0,83 -33,162 -87,219 -181,192 -576,100 -576,-224zm286 -605l0 0 103 0c78,5 155,21 225,49 54,22 143,73 185,115 53,53 98,99 134,168 57,112 64,174 64,303 0,229 -178,438 -383,520 -211,85 -474,64 -671,-56l-84 -64c-72,-67 -119,-132 -156,-225 -32,-80 -37,-141 -37,-230 0,-157 82,-312 195,-413l88 -65c100,-61 218,-95 337,-102z"/>
  <path class="fil0" d="M3923 1388l-231 0 0 -287 186 0c107,0 191,30 208,123 17,101 -66,164 -163,164zm-560 258l0 0 599 0c125,0 244,-46 317,-101l53 -50c61,-80 86,-124 86,-251 0,-170 -130,-297 -271,-345 -137,-46 -301,-32 -455,-32l0 -119 604 0c11,0 14,-3 14,-14l0 -244 -947 0 0 1156z"/>
  <path class="fil0" d="M5336 967l-240 0 0 -224 221 0c75,0 136,32 145,102 10,70 -60,122 -126,122zm-564 679l0 0 324 0 0 -431c199,0 420,25 568,-96 257,-211 119,-629 -293,-629l-599 0 0 1156z"/>
  <g id="_1965064683904">
   <path class="fil1" d="M9514 688c-262,-302 -578,-530 -946,-686 -5,-3 -14,-3 -20,0 -53,24 -106,47 -158,72 -303,152 -565,356 -787,612 -5,5 -10,15 -10,22 10,76 18,153 31,229 56,314 166,608 330,881 5,10 12,15 23,18 191,44 385,65 582,65 197,0 392,-22 584,-67 7,-2 16,-8 19,-14 115,-192 205,-396 268,-611 48,-164 76,-332 91,-501 1,-7 -3,-15 -7,-20zm-193 626l0 0c-54,153 -122,300 -204,441 -5,7 -13,13 -20,15 -177,39 -356,59 -556,58 -163,1 -343,-20 -521,-59 -7,-1 -15,-7 -19,-14 -147,-251 -247,-520 -300,-806 -13,-71 -21,-144 -31,-216 -1,-7 3,-17 7,-23 244,-272 533,-482 868,-629 7,-3 18,-3 25,0 336,148 626,358 870,632 4,5 8,13 7,20 -20,198 -60,392 -126,581z"/>
  </g>
  <g id="_1965064684064">
   <path class="fil0" d="M8205 925c-126,20 -204,4 -210,147 -3,58 1,304 13,349 27,101 161,60 270,88 91,23 213,52 319,29 2,-44 -26,-46 -15,-95 7,-31 33,-50 43,-76 -13,-21 -45,-55 -47,-84 -5,-45 36,-72 39,-96 4,-30 -37,-63 -39,-95 -3,-40 39,-67 37,-94 -1,-18 -35,-60 -36,-91 -2,-27 9,-21 1,-56 -4,-18 -13,-32 -18,-50 -22,-84 120,-423 -60,-401 -65,8 -98,89 -126,150 -30,65 -60,122 -89,185l-82 190z"/>
   <path class="fil0" d="M8725 1013c-165,25 -131,134 -26,150 34,6 384,10 415,-12 30,-21 106,-104 -47,-132 -73,-13 -269,-17 -342,-6z"/>
   <path class="fil0" d="M8720 1199c-128,16 -139,121 -34,147 61,15 370,32 403,-51 17,-44 -28,-77 -63,-89 -46,-16 -250,-13 -306,-7z"/>
   <path class="fil0" d="M8689 832c-101,20 -109,123 9,144 65,12 236,7 303,-2 95,-13 114,-129 -12,-144 -63,-8 -241,-10 -300,2z"/>
   <path class="fil0" d="M8721 1385c-140,15 -110,120 -58,141 41,17 216,15 268,10 115,-11 111,-112 49,-142 -39,-19 -206,-15 -259,-9z"/>
  </g>
  <path class="fil0" d="M9662 1646l937 0 0 228 295 0 0 0c11,0 14,-3 14,-15l0 -461c0,-11 -3,-15 -14,-15l-152 0 0 -893 -324 0 0 893 -432 0 0 -893 -324 0 0 1156z"/>
  <polygon class="fil0" points="12573,1646 12897,1646 12897,1165 13368,1165 13368,1646 13692,1646 13692,490 13368,490 13368,897 12897,897 12897,490 12573,490 "/>
  <polygon class="fil0" points="11242,1646 12214,1646 12214,1383 11566,1383 11566,1160 12072,1160 12072,907 11566,907 11566,753 12200,753 12200,490 11242,490 "/>
 </g>
</svg>
