<svg xmlns="http://www.w3.org/2000/svg" width="536.93mm" height="183.24mm" viewBox="0 0 1522 519.42"><title>Logo_Korzina_01</title><path d="M133.57,675.1H1587.36a26.06,26.06,0,0,1,26,26v2.29a26.06,26.06,0,0,1-26,26H133.57a26.06,26.06,0,0,1-26-26v-2.29a26.06,26.06,0,0,1,26-26Z" transform="translate(-91.88 -209.93)" fill="#fff" fill-rule="evenodd"/><path d="M413.52,277.07a36.22,36.22,0,0,1,7.51,6.4,35.25,35.25,0,0,1,4,5.4h68.2a19.21,19.21,0,0,1,18.64,14.55c1.06-3.14,8.7-8,13.77-6.05,6.2-14.34,22.24-16.82,32-16.57,22.54-28.25,63.85-13.81,74.69,10.8h14q8.88,0,17.35.61,8.25.59,15.61,1.82a79.61,79.61,0,0,1,15.08,4,62.13,62.13,0,0,1,13.46,7A52.37,52.37,0,0,1,719,315.5a56,56,0,0,1,7.81,13.32,69.29,69.29,0,0,1,4.31,15.7A108.66,108.66,0,0,1,732.43,362v11.47a16.2,16.2,0,0,1-.11,2q-.27,8.69-.79,15.73-.64,8.77-1.62,16.83a119.63,119.63,0,0,1-3.53,17.75,109.49,109.49,0,0,1-6.08,16.62,18.58,18.58,0,0,1-1.92,3.2,86.74,86.74,0,0,1-7.14,8.95q-4.25,4.71-10.17,10.23A220.3,220.3,0,0,1,675.68,485a228.79,228.79,0,0,1-28.27,16.55,99.48,99.48,0,0,1-15,6,63.78,63.78,0,0,1-13.47,2.56q-.7.19-1.71.57a23.87,23.87,0,0,0-2.85,1.27V650.22a17.32,17.32,0,0,1-17.32,17.32H543.51a17.32,17.32,0,0,1-17.32-17.32V596.85a107.56,107.56,0,0,1-16.37,4.69q-3.36.72-7.1,1.3a43.59,43.59,0,1,1-77.07,2.44q-6.31-.24-12.9-.56a43.6,43.6,0,1,1-76.21-5.25c-8.64-.82-16.33-1.66-23.19-2.53v53.28A17.32,17.32,0,0,1,296,667.54H242.5a17.32,17.32,0,0,1-17.32-17.32V560q-.39-3.84-1-7.59t-1.63-8.16h0a33.67,33.67,0,0,0-1.85-5.76,30.61,30.61,0,0,0-2.75-5,29,29,0,0,0-3.75-4.41,41.85,41.85,0,0,0-5.47-4.44l-.78-.57a57.27,57.27,0,0,0-6.72-3.82q-2.55-1.25-5.94-2.58V650.22A17.32,17.32,0,0,1,178,667.54H124.43a17.32,17.32,0,0,1-17.32-17.32V347.69L93.3,315.76a17.24,17.24,0,0,1,15.83-24.08v-.08H178a17.32,17.32,0,0,1,17.32,17.32V441.51c2.27-.9,4.24-1.76,5.94-2.59a56.65,56.65,0,0,0,7.5-4.39,41.85,41.85,0,0,0,5.47-4.44,29,29,0,0,0,3.75-4.41,32.19,32.19,0,0,0,2.75-5.06,33,33,0,0,0,1.92-5.58c.63-2.57,1.15-5.23,1.58-8q.51-3.24,1-8.54V308.92A17.32,17.32,0,0,1,242.5,291.6H296a17.32,17.32,0,0,1,17.32,17.32v58.39l.14-.13a39.67,39.67,0,0,1,15.78-9.58V307.25a35.88,35.88,0,0,1,17.9-30.94l3.6-29.67a19.56,19.56,0,0,1-1.32-7V230a20.23,20.23,0,0,1,20.09-20.09h21A20.21,20.21,0,0,1,410.66,230v9.58a19.52,19.52,0,0,1-.92,5.91l3.78,31.56ZM614.61,347l-.24,25.25v69.3q3.39-1.35,5.93-2.59a56.65,56.65,0,0,0,7.5-4.39,42,42,0,0,0,5.48-4.44,30.17,30.17,0,0,0,3.75-4.41,32.18,32.18,0,0,0,2.74-5.06,33,33,0,0,0,1.92-5.58q.94-3.87,1.59-8c.34-2.17.66-5,1-8.54,0-13.68,1.36-20.69-5.21-33.36a33.15,33.15,0,0,0-6.52-9c-3.68-3.45-17.92-12.32-17.92-9.2Zm572.67,309.32a17.28,17.28,0,0,1-16.15,11.19v.07H1053.07q-8.88,0-17.35-.61-8.25-.58-15.61-1.81a79.61,79.61,0,0,1-15.08-4,61.69,61.69,0,0,1-13.46-7,52.07,52.07,0,0,1-11.19-10.5,56.26,56.26,0,0,1-7.81-13.33,69.29,69.29,0,0,1-4.31-15.7,108.64,108.64,0,0,1-1.35-17.46V308.92a17.33,17.33,0,0,1,17.32-17.32h53.54a17.32,17.32,0,0,1,17.32,17.32V580.13a74,74,0,0,0,5.21,13.36,41.28,41.28,0,0,0,7,10,32.78,32.78,0,0,0,9.57,6.39,63.89,63.89,0,0,0,8.12,3.06v-304a17.33,17.33,0,0,1,17.32-17.32h53.54a17.32,17.32,0,0,1,16.77,13c.8,3.6.5,6.93.55,10.39V611.46L1187,643.39c.11.25.21.51.31.77a19.51,19.51,0,0,1,0,12.12ZM834.6,442.52c2.31-.92,4.34-1.79,6.06-2.64a56.47,56.47,0,0,0,7.5-4.39c.28-.19.56-.38.85-.55a41.15,41.15,0,0,0,4.63-3.89,29,29,0,0,0,3.75-4.41,30,30,0,0,0,2.69-4.87,28.86,28.86,0,0,0,1.67-5.19c.06-.3.14-.59.22-.88h0c.69-2.47,1.25-4.94,1.7-7.41.39-2.18.71-4.48,1-6.92V346.54a80.31,80.31,0,0,0-8.12,3.23,38.51,38.51,0,0,0-10,6.39,32.94,32.94,0,0,0-6.52,9A71,71,0,0,0,834.73,379v61.35a19.09,19.09,0,0,1-.13,2.15Zm-24.45,13.81-50.61-13.11a17.26,17.26,0,0,1-12.93-16.71h-.06V362a108.64,108.64,0,0,1,1.35-17.46,69.29,69.29,0,0,1,4.31-15.7A56,56,0,0,1,760,315.5,52.55,52.55,0,0,1,771.2,305a62.44,62.44,0,0,1,13.47-7,79.41,79.41,0,0,1,15.08-4q7.37-1.23,15.61-1.82,8.48-.6,17.35-.61h76.95A33.82,33.82,0,0,1,920,293.19a35.15,35.15,0,0,1,9.26,4.57,52,52,0,0,1,6.39,5.15,54.3,54.3,0,0,1,5.52,6.08,53.24,53.24,0,0,1,4.78,7.14,58.18,58.18,0,0,1,3.6,7.8,53.32,53.32,0,0,1,2.42,8.33,45.51,45.51,0,0,1,.88,8.69v33.46a15.91,15.91,0,0,1-.12,2q-.27,8.69-.79,15.73-.64,8.77-1.62,16.83a119.37,119.37,0,0,1-3.53,17.75,108.7,108.7,0,0,1-6.08,16.62,17.27,17.27,0,0,1-1.8,3,94.92,94.92,0,0,1-9.49,11.77,182.29,182.29,0,0,1-13.67,13Q910,476.06,904,480.53q6,4.47,11.68,9.41a180.31,180.31,0,0,1,13.67,13,93.47,93.47,0,0,1,10.07,12.65,17.75,17.75,0,0,1,1.2,2.17h0a112.51,112.51,0,0,1,6.14,16.49,123.87,123.87,0,0,1,3.64,17.61q1.18,8.67,1.75,17.23.6,9.15.61,17.58v10.51a108.86,108.86,0,0,1-1.35,17.47,69.35,69.35,0,0,1-4.31,15.69,56.26,56.26,0,0,1-7.81,13.33,52.26,52.26,0,0,1-11.18,10.5,62,62,0,0,1-13.47,7,79.41,79.41,0,0,1-15.08,4q-7.36,1.23-15.61,1.81-8.47.62-17.35.61H789.69a17.71,17.71,0,0,1-3.67-.39,36.26,36.26,0,0,1-7.14-1.9,42.33,42.33,0,0,1-8.16-4.14,53.1,53.1,0,0,1-12.49-11.43,55.88,55.88,0,0,1-8.31-14.44,50.13,50.13,0,0,1-2.49-8.34,44.68,44.68,0,0,1-.88-8.71V533.11a17.33,17.33,0,0,1,13.75-17l40.87-10.95a17.43,17.43,0,0,1-.19-11.54l8.73-35.84c.13-.51.27-1,.44-1.5Zm24.56,62.28v.16h0v94.14a63.89,63.89,0,0,0,8.12-3.06,32.78,32.78,0,0,0,9.57-6.39,41.28,41.28,0,0,0,7-10c6.19-12,6.58-26,4.24-39q-.66-3.65-1.77-7.85a40.68,40.68,0,0,0-2.16-6.16,39.44,39.44,0,0,0-3-5.5,32.62,32.62,0,0,0-3.83-4.78,43.31,43.31,0,0,0-5.36-4.68,49.17,49.17,0,0,0-7.12-4.3q-2.53-1.29-5.69-2.56Z" transform="translate(-91.88 -209.93)" fill="#fff"/><path d="M1495.81,346.54V450.78h29.9V379a71.12,71.12,0,0,0-5.22-13.85,33.15,33.15,0,0,0-6.52-9,38.51,38.51,0,0,0-10-6.39,81.75,81.75,0,0,0-8.12-3.23Zm-88.17,303.68V341a45.47,45.47,0,0,1,.87-8.69,53.42,53.42,0,0,1,2.43-8.33,56.94,56.94,0,0,1,3.59-7.8,54.21,54.21,0,0,1,4.78-7.14,56.3,56.3,0,0,1,5.52-6.08,52.1,52.1,0,0,1,6.4-5.15,35.1,35.1,0,0,1,9.25-4.57,33.82,33.82,0,0,1,10.29-1.59h77q8.88,0,17.35.61,8.24.59,15.6,1.82a79.41,79.41,0,0,1,15.08,4,61.59,61.59,0,0,1,13.4,7,52.63,52.63,0,0,1,11.25,10.5c6.89,8.68,10.37,18.19,12.13,29a108.6,108.6,0,0,1,1.35,17.45V650.22a17.32,17.32,0,0,1-17.32,17.32H1543a17.31,17.31,0,0,1-17.32-17.32V513.14h-29.9V650.22a17.31,17.31,0,0,1-17.32,17.32H1425a17.31,17.31,0,0,1-17.32-17.32ZM1189.3,291.6h68.83a17.32,17.32,0,0,1,17.32,17.32V450.78h29.89V308.92a17.33,17.33,0,0,1,17.32-17.32h53.54a17.33,17.33,0,0,1,17.32,17.32v341.3a17.32,17.32,0,0,1-17.32,17.32h-53.54a17.32,17.32,0,0,1-17.32-17.32V513.14h-29.89V650.22a17.31,17.31,0,0,1-17.32,17.32H1204.6a17.34,17.34,0,0,1-16.78-13,89.22,89.22,0,0,1-.56-10.44l0,0V347.69l-13.81-31.93c-.11-.26-.22-.52-.31-.78-.92-3.6-1.38-8.1,0-12.11a17.23,17.23,0,0,1,16.14-11.19v-.08Z" transform="translate(-91.88 -209.93)" fill="#fff"/><path d="M397.53,289.05a18.53,18.53,0,0,1,15.36,18.2V476.77a18.52,18.52,0,0,1-18.47,18.47H365.06a18.52,18.52,0,0,1-18.47-18.47V307.25a18.54,18.54,0,0,1,16.49-18.36l6.79-56.07h20.92l6.74,56.23Z" transform="translate(-91.88 -209.93)" fill="#f5a053" fill-rule="evenodd"/><polygon points="259.23 175.39 323.51 175.39 323.51 123.9 259.23 123.9 259.23 175.39 259.23 175.39" fill="#ef7d00" fill-rule="evenodd"/><path d="M489.15,329A28.26,28.26,0,0,1,515.22,357V467.69a28.25,28.25,0,0,1-28.16,28.17H409.53a28.26,28.26,0,0,1-28.17-28.17V357A28.26,28.26,0,0,1,407.44,329V313.1h81.71V329Z" transform="translate(-91.88 -209.93)" fill="#62275a" fill-rule="evenodd"/><path d="M493.23,306.19H403.69a1.91,1.91,0,0,0-1.9,1.9v7.51a1.91,1.91,0,0,0,1.9,1.9h89.54a1.91,1.91,0,0,0,1.9-1.9v-7.51a1.91,1.91,0,0,0-1.9-1.9Z" transform="translate(-91.88 -209.93)" fill="#c6c6c6" fill-rule="evenodd"/><polygon points="367.73 107.57 399.16 107.57 399.16 96.26 367.73 96.26 367.73 107.57 367.73 107.57" fill="#b2b2b2" fill-rule="evenodd"/><polygon points="322 107.57 343.85 107.57 343.85 96.26 322 96.26 322 107.57 322 107.57" fill="#dadada" fill-rule="evenodd"/><polygon points="322 107.57 343.85 107.57 343.85 96.26 322 96.26 322 107.57 322 107.57" fill="#dadada" fill-rule="evenodd"/><polygon points="327.35 107.57 331.9 107.57 331.9 96.26 327.35 96.26 327.35 107.57 327.35 107.57" fill="#ededed" fill-rule="evenodd"/><polygon points="373.94 107.57 395.54 107.57 395.54 96.26 373.94 96.26 373.94 107.57 373.94 107.57" fill="#9d9d9c" fill-rule="evenodd"/><polygon points="386.35 107.57 393.27 107.57 393.27 96.26 386.35 96.26 386.35 107.57 386.35 107.57" fill="#878787" fill-rule="evenodd"/><path d="M413.28,335.42s-27.66-4.72-27.34,37.4,4.18,29.37,4.18,29.37-4.68-52.68,17.5-54.83,17-15.4,17-15.4V317.5h-11l-.31,17.92Z" transform="translate(-91.88 -209.93)" fill="#ad4582" fill-rule="evenodd"/><path d="M478.56,335.42s27.65-4.72,27.34,37.4-4.19,29.37-4.19,29.37,4.68-52.68-17.49-54.83-17-15.4-17-15.4V317.5h11l.32,17.92Z" transform="translate(-91.88 -209.93)" fill="#56365d" fill-rule="evenodd"/><polygon points="315.56 112.92 397.26 112.92 397.26 107.57 315.56 107.57 315.56 112.92 315.56 112.92" fill="#4b2f51" fill-rule="evenodd"/><path d="M528.22,308.92H646.28a185.91,185.91,0,0,1,30.12,2.15q12.9,2.16,21.51,8.13a36.33,36.33,0,0,1,12.9,16.25q4.31,10.28,4.31,26.53v11.47q-.48,16.74-2.39,32.51a96.64,96.64,0,0,1-8.13,29.16q-4.79,7.17-15.3,17a200.71,200.71,0,0,1-23.42,18.64,209.64,209.64,0,0,1-26,15.29q-13.14,6.47-23.18,6.94a37.09,37.09,0,0,0-11,4.06q-5.73,3.11-8.6,11.23v142H543.51V344.3l-15.29-35.38Zm68.83,146.75q3.83,5.26,9.56,5.26a25.78,25.78,0,0,0,9.08-1.44,94.25,94.25,0,0,0,22-10.75,51.85,51.85,0,0,0,13.62-13.38,49.5,49.5,0,0,0,7.17-16.26,132.6,132.6,0,0,0,3.11-19.83V376.8q-5.75-22.47-17.21-33.22T609,327.09h-4.78Q600.4,328,599,330a12.35,12.35,0,0,0-1.91,3.34V455.67Z" transform="translate(-91.88 -209.93)" fill="#e30613"/><path d="M826.49,461.89c1.59,0,3.27-.08,5-.24a12.6,12.6,0,0,0,4.54-1.2,94.65,94.65,0,0,0,22-10.75,51.88,51.88,0,0,0,13.62-13.39,46.06,46.06,0,0,0,6.93-16,107.54,107.54,0,0,0,3.35-18.64V333.78a7,7,0,0,0-1.43-3.59c-1-1.43-2.87-2.47-5.74-3.1H870q-23.9,5.73-35.37,16.49T817.41,376.8v63.57l-53.54-13.86V362q0-16.25,4.3-26.53a36.42,36.42,0,0,1,12.91-16.25q8.61-6,21.51-8.13a185.82,185.82,0,0,1,30.12-2.15h76.95a17,17,0,0,1,9.8,3.11,36.72,36.72,0,0,1,8.13,7.65A38.11,38.11,0,0,1,933.33,330a31.31,31.31,0,0,1,2.15,11v33.46q-.48,16.72-2.39,32.5A96.48,96.48,0,0,1,925,436.07q-6.21,9.57-20.55,22a197.4,197.4,0,0,1-32,22.47,198,198,0,0,1,32,22.46q14.34,12.43,20.55,22a101.56,101.56,0,0,1,8.37,29.16,241.09,241.09,0,0,1,2.15,32.51v10.51q0,16.26-4.3,26.53a36.35,36.35,0,0,1-12.91,16.25q-8.61,6-21.51,8.13a185.82,185.82,0,0,1-30.12,2.15H789.69a21.42,21.42,0,0,1-9.56-3.58,35,35,0,0,1-8.37-7.65A39.41,39.41,0,0,1,766,629a29.51,29.51,0,0,1-2.15-10.76V533.11l53.54-14.34V625.36a7,7,0,0,0,1.43,3.59q1.44,2.14,5.74,3.11h4.78q23.89-4.78,35.37-16.49t17.21-33.23V560.83a119.57,119.57,0,0,0-3.35-18.64,56.57,56.57,0,0,0-7.4-16.73A54.88,54.88,0,0,0,857.8,511.6q-8.37-6.21-21.75-11a12.81,12.81,0,0,0-4.54-1.19c-1.75-.16-3.43-.24-5-.24h-9.08l9.08-37.28Z" transform="translate(-91.88 -209.93)" fill="#e30613"/><path d="M1053.07,650.22a185.91,185.91,0,0,1-30.12-2.15q-12.9-2.15-21.51-8.13a36.33,36.33,0,0,1-12.9-16.25q-4.31-10.28-4.31-26.53V308.92h53.54V582.34q5.74,21.51,17.21,33.23t35.37,16.49h4.78q4.3-1,5.74-3.11a7,7,0,0,0,1.43-3.59V308.92h53.54V614.85l15.29,35.37Z" transform="translate(-91.88 -209.93)" fill="#e30613"/><polygon points="1097.41 98.99 1166.25 98.99 1166.25 258.17 1230.78 258.17 1230.78 98.99 1284.32 98.99 1284.32 440.29 1230.78 440.29 1230.78 285.89 1166.25 285.89 1166.25 440.29 1112.71 440.29 1112.71 134.36 1097.41 98.99 1097.41 98.99" fill="#e30613"/><path d="M1485.66,327.09c-2.86.63-4.78,1.67-5.73,3.1a7,7,0,0,0-1.44,3.59V468.1H1543V376.8q-5.74-22.47-17.22-33.22t-35.37-16.49ZM1425,650.22V341a31.09,31.09,0,0,1,2.15-11,37.82,37.82,0,0,1,5.73-10.28A36.72,36.72,0,0,1,1441,312a17,17,0,0,1,9.8-3.11h77a185.69,185.69,0,0,1,30.11,2.15q12.92,2.16,21.51,8.13a36.44,36.44,0,0,1,12.92,16.25q4.29,10.28,4.3,26.53V650.22H1543V495.82h-64.54v154.4Z" transform="translate(-91.88 -209.93)" fill="#e30613"/><path d="M178,454.24q1,6.69,9.09,6.69c1.59,0,3.26-.08,5-.24a12.66,12.66,0,0,0,4.54-1.2,94.25,94.25,0,0,0,22-10.75,52.16,52.16,0,0,0,13.62-13.38,49.92,49.92,0,0,0,7.17-16.26,133.91,133.91,0,0,0,3.11-19.83V308.92H296v64.53a236.54,236.54,0,0,1-2.15,33,101.23,101.23,0,0,1-8.36,28.68q-6.22,9.56-21.27,22a228.1,228.1,0,0,1-32.75,22.47A228.1,228.1,0,0,1,264.25,502q15,12.42,21.27,22a101.06,101.06,0,0,1,8.36,27.72A209.11,209.11,0,0,1,296,582.82v67.4H242.5V559.88a141.09,141.09,0,0,0-3.11-19.6,49.64,49.64,0,0,0-7.17-16.49A52.19,52.19,0,0,0,218.6,510.4a94.25,94.25,0,0,0-22-10.75,12.66,12.66,0,0,0-4.54-1.2c-1.76-.16-3.43-.24-5-.24a8.81,8.81,0,0,0-4.78,1.2c-1.28.79-2.71,2.63-4.31,5.5V650.22H124.43V344.3l-15.3-35.38H178V454.24Z" transform="translate(-91.88 -209.93)" fill="#e30613"/><path d="M335.9,453.61s16.42,1,26.13,11,12.63,17.7,12.63,17.7,5.46-.08,12.49-5.09,9.23-10.84,9.23-10.84-4.82-3.77-13.24-15.57-2.85-28.93-2.85-28.93l-8.3-.65s-2.63,13.26-1.8,22.14L359,427.77l-10.39,7.43,11.73,16.43c-8.94-5.7-21-6.21-21-6.21l-3.48,8.19Z" transform="translate(-91.88 -209.93)" fill="#44ac3b" fill-rule="evenodd"/><path d="M370.19,443.41,359,427.77l-5,3.59,8,8.47a21.9,21.9,0,0,0,4.07,3.43,4.71,4.71,0,0,0,4.1.15Z" transform="translate(-91.88 -209.93)" fill="#44ac3b" fill-rule="evenodd"/><path d="M380.29,421.92l-8.3-.65s-.31,1.55-.68,3.92l4,.31s-5.58,17.13,2.85,28.93c2.95,4.13,5.45,7.28,7.47,9.63a10.52,10.52,0,0,1-.85,14.7l-.24.21c.85-.5,1.74-1.06,2.65-1.71,7-5,9.23-10.84,9.23-10.84s-4.82-3.77-13.24-15.57-2.85-28.93-2.85-28.93Z" transform="translate(-91.88 -209.93)" fill="#44ac3b" fill-rule="evenodd"/><path d="M339.38,445.42h0l-.56,1.32-1.1,2.59c3.46.47,9.54.15,14.93,2.13a11.41,11.41,0,0,0,7.71.17c-8.94-5.7-21-6.21-21-6.21Z" transform="translate(-91.88 -209.93)" fill="#44ac3b" fill-rule="evenodd"/><path d="M337.18,464.92c-9.15,8.19-20.78,5.25-25.44-3.81-3.63,1.89-16.09,1.49-20.64-9.45-3.85-9.27,2.78-18.57,10.27-21.77a19.06,19.06,0,0,1,17-31.76,23.42,23.42,0,0,1,40.5-17.75c2.32-7.65,11.59-12.37,19.14-9.73s11.87,12.09,8.92,19.52a15.91,15.91,0,0,1,12.76,27.42c-4.86,4.54-11.25,6.21-17.08,3-1.11,4.32-6.42,7.11-10.83,7.78A11.72,11.72,0,0,1,360.35,423c1,5.67-2.21,11.09-6.46,15s-8,3.67-15,2.39c6.1,10.14,6.16,17.53-1.67,24.54Z" transform="translate(-91.88 -209.93)" fill="#44ac3b" fill-rule="evenodd"/><path d="M316.67,412.63a6.39,6.39,0,1,1-8.92-1.49,6.39,6.39,0,0,1,8.92,1.49Z" transform="translate(-91.88 -209.93)" fill="#44ac3b" fill-rule="evenodd"/><path d="M310.86,443.56a6.39,6.39,0,1,1-8.92-1.49,6.38,6.38,0,0,1,8.92,1.49Z" transform="translate(-91.88 -209.93)" fill="#44ac3b" fill-rule="evenodd"/><path d="M333.2,449.83a6.39,6.39,0,1,1-8.92-1.49,6.39,6.39,0,0,1,8.92,1.49Z" transform="translate(-91.88 -209.93)" fill="#44ac3b" fill-rule="evenodd"/><path d="M387,390.17c2.95-7.43-1.38-16.89-8.92-19.52s-16.82,2.08-19.14,9.73a23.42,23.42,0,0,0-40.5,17.75,19.62,19.62,0,0,0-16.27,5.19,16.79,16.79,0,0,1,20.93,5.8c.69-3.25,4.31-8,8.64-9.58a11.31,11.31,0,0,1,12.42,3.56c3-3.82,7.62-6.07,12.7-4,4.26,1.73,7.49,8,7.55,11.52,5,0,10,6,9.56,11a10.57,10.57,0,0,1-3.14,6.84c.34,0,.68,0,1-.07,4.42-.67,9.72-3.46,10.83-7.78,5.83,3.21,12.22,1.54,17.08-3A15.91,15.91,0,0,0,387,390.17Z" transform="translate(-91.88 -209.93)" fill="#44ac3b" fill-rule="evenodd"/><path d="M406.1,415.77c-10.89-6.53-24.12-7.29-36.58-9.69-9.66-1.87-19.82-5.44-26.51-12.25l-2.82,1.31c.9,9.5-2.91,19.57-7.7,28.17-6.19,11.07-14.13,21.68-16.16,34.21a39.49,39.49,0,0,0,15.88,37.71c11.75,8.28,33.21,9.51,55.79-1s35.47-27.71,36.71-42a39.5,39.5,0,0,0-18.61-36.44Z" transform="translate(-91.88 -209.93)" fill="#9f1b5b" fill-rule="evenodd"/><path d="M348.24,462.8a9.74,9.74,0,1,1-12.93-4.72,9.75,9.75,0,0,1,12.93,4.72Z" transform="translate(-91.88 -209.93)" fill="#bf4580" fill-rule="evenodd"/><path d="M406.1,415.77c-10.89-6.53-24.12-7.29-36.58-9.69-9.66-1.87-19.82-5.44-26.51-12.25l-2.82,1.31c16.07,34.54,38.16,21.62,53.25,43.51,15.81,22.92,1.65,50.15-37.81,63.11,9.75.1,20.92-2.2,32.37-7.53,22.58-10.5,35.47-27.71,36.71-42a39.5,39.5,0,0,0-18.61-36.44Z" transform="translate(-91.88 -209.93)" fill="#641a48" fill-rule="evenodd"/><path d="M397.1,419.93a45.76,45.76,0,0,1,5.67,5.1,49.74,49.74,0,0,1,11.09,19.82,42.33,42.33,0,0,1,1.52,7.49,33.82,33.82,0,0,1,.1,7.66,37.3,37.3,0,0,1-4.75,14.5A46.21,46.21,0,0,1,401,486.26,55,55,0,0,1,373.5,499a45.83,45.83,0,0,1-15.28-.15,36.88,36.88,0,0,1-14.16-5.69,33.6,33.6,0,0,1-5.78-5,42.21,42.21,0,0,1-4.76-6,50.43,50.43,0,0,1-6.46-13.8,48.73,48.73,0,0,1-1.57-7.48,45.21,45.21,0,0,1-.25-7.63,51.74,51.74,0,0,1,3.39-14.83c1.78-4.78,4-9.35,6.08-14a69.07,69.07,0,0,0,4.9-14.35,41.33,41.33,0,0,0,.55-15l0-.24.22-.1,2.25-1.06.22-.1.16.19A41.44,41.44,0,0,0,354.83,403,68.47,68.47,0,0,0,369,408.56c4.88,1.43,9.82,2.66,14.62,4.38,1.19.43,2.39.88,3.56,1.38s2.33,1,3.46,1.61,2.25,1.2,3.33,1.87,2.13,1.39,3.16,2.13Zm0,.06c-1-.73-2.08-1.45-3.17-2.1a37.43,37.43,0,0,0-3.34-1.83c-1.13-.58-2.3-1.09-3.47-1.58s-2.36-.92-3.56-1.35c-4.8-1.66-9.75-2.85-14.65-4.23a70.45,70.45,0,0,1-14.28-5.42,42.08,42.08,0,0,1-12.11-9.31l.39.08-2.26,1.05.18-.34a41.85,41.85,0,0,1-.66,15.25,69.72,69.72,0,0,1-5,14.41c-2.1,4.64-4.37,9.17-6.18,13.92a50.21,50.21,0,0,0-3.46,14.74,43.63,43.63,0,0,0,.29,7.58,49.16,49.16,0,0,0,8.1,21.08,42.73,42.73,0,0,0,4.76,5.89,33.52,33.52,0,0,0,5.75,4.89,36.63,36.63,0,0,0,14,5.49,45.26,45.26,0,0,0,15.05.13,54.47,54.47,0,0,0,27.11-12.61,45.53,45.53,0,0,0,9.6-11.59,36.46,36.46,0,0,0,4.85-14.2,34.65,34.65,0,0,0,0-7.55,43.81,43.81,0,0,0-1.42-7.44,50.14,50.14,0,0,0-6.23-13.79,48.47,48.47,0,0,0-4.63-6,44.68,44.68,0,0,0-5.6-5.14Z" transform="translate(-91.88 -209.93)" fill="#cb93a4" fill-rule="evenodd"/><path d="M387.28,424.51a55.39,55.39,0,0,1,8.55,10.56A68.46,68.46,0,0,1,402,447.22a58.64,58.64,0,0,1,3.5,13.16A36,36,0,0,1,404.8,474a34.81,34.81,0,0,1-2.34,6.45,32,32,0,0,1-3.69,5.78,29.73,29.73,0,0,1-24.14,11.05,32.09,32.09,0,0,1-13.2-3.4,36.17,36.17,0,0,1-10.77-8.36,59.1,59.1,0,0,1-7.78-11.19,68.74,68.74,0,0,1-5.32-12.53,54.83,54.83,0,0,1-2.51-13.36,52.71,52.71,0,0,1,1.08-13.56c.9-4.46,2.25-8.8,3.38-13.18a62.62,62.62,0,0,0,2.17-13.35,47.65,47.65,0,0,0-1.21-13.42l-.06-.26.24-.11,1.63-.76.24-.12.16.22c.68.91,1.38,1.79,2.11,2.66s1.52,1.69,2.31,2.49a49.61,49.61,0,0,0,5.12,4.48,62.39,62.39,0,0,0,11.68,7c4.11,2,8.31,3.75,12.32,6a55.28,55.28,0,0,1,5.8,3.64c.93.65,1.83,1.36,2.71,2.1s1.72,1.5,2.55,2.27Zm0,.05c-.84-.77-1.68-1.53-2.57-2.24s-1.79-1.42-2.72-2.07a58.9,58.9,0,0,0-5.82-3.57c-4-2.16-8.23-3.91-12.37-5.84a62.89,62.89,0,0,1-11.84-6.9,50.34,50.34,0,0,1-5.21-4.47c-.82-.81-1.61-1.64-2.37-2.5s-1.48-1.76-2.17-2.67l.4.1-1.64.75.18-.36c2.09,8.93,1.28,18.3-1.16,27-1.18,4.39-2.56,8.71-3.49,13.13a51.37,51.37,0,0,0-1.18,13.48,54.78,54.78,0,0,0,2.59,13.29,68.36,68.36,0,0,0,5.38,12.43,58.37,58.37,0,0,0,7.82,11,35.73,35.73,0,0,0,10.66,8.13,31.32,31.32,0,0,0,12.93,3.32,29.1,29.1,0,0,0,23.57-10.82,31.18,31.18,0,0,0,3.6-5.66,35.12,35.12,0,0,0,3.1-19.68,58.31,58.31,0,0,0-3.31-13.12,68.5,68.5,0,0,0-6-12.16,56.05,56.05,0,0,0-8.42-10.62Z" transform="translate(-91.88 -209.93)" fill="#cb93a4" fill-rule="evenodd"/><path d="M376.89,429.34a100.69,100.69,0,0,1,12.31,20.84,104.87,104.87,0,0,1,4.36,11.32,59.49,59.49,0,0,1,2.59,11.89,32.94,32.94,0,0,1-.94,12.14,16.65,16.65,0,0,1-2.74,5.51,11.76,11.76,0,0,1-4.9,3.73,12.18,12.18,0,0,1-6.12.71,17.77,17.77,0,0,1-5.84-1.88,27.52,27.52,0,0,1-5.14-3.32,39.86,39.86,0,0,1-4.47-4.14,60.38,60.38,0,0,1-7.25-9.76A108.82,108.82,0,0,1,353,465.7a97.4,97.4,0,0,1-7.75-22.94A67.72,67.72,0,0,1,344,430.7c-.05-4.05.2-8.09.27-12.12a71.74,71.74,0,0,0-3.5-23.77l-.09-.27.26-.12,1-.46.25-.12.16.24c.56.87,1.1,1.74,1.69,2.59s1.17,1.7,1.79,2.52q1.84,2.47,3.9,4.79a73,73,0,0,0,9,8.51c3.22,2.6,6.55,5.07,9.65,7.82a67.3,67.3,0,0,1,8.51,9Zm-.06.05a66.44,66.44,0,0,0-8.59-8.92c-3.12-2.71-6.47-5.14-9.73-7.71a72,72,0,0,1-16.69-18.33l.41.12-1,.45.16-.39a72,72,0,0,1,3.33,24c-.1,4.05-.4,8.07-.38,12.1a64.82,64.82,0,0,0,1.09,12,81,81,0,0,0,3.24,11.64,113.09,113.09,0,0,0,4.66,11.15,107.57,107.57,0,0,0,5.85,10.57,60.78,60.78,0,0,0,7.28,9.6,39.44,39.44,0,0,0,4.4,4.07,27.82,27.82,0,0,0,5,3.24c3.49,1.81,7.73,2.64,11.4,1.13s6.12-5,7.22-8.8a28.49,28.49,0,0,0,1-5.88,42.93,42.93,0,0,0-.11-6,58.75,58.75,0,0,0-2.38-11.78,104.08,104.08,0,0,0-4.18-11.34,100.17,100.17,0,0,0-12-20.94Z" transform="translate(-91.88 -209.93)" fill="#cb93a4" fill-rule="evenodd"/><path d="M366.82,434c3.7,6.4,7,13,10.21,19.69s6.14,13.46,8.7,20.41a89.48,89.48,0,0,1,3.12,10.68,32.09,32.09,0,0,1,.76,5.55,7.94,7.94,0,0,1-.37,2.87,2.53,2.53,0,0,1-.36.69,1.78,1.78,0,0,1-.62.55,2,2,0,0,1-1.61.13,11.86,11.86,0,0,1-4.47-3.5,48.46,48.46,0,0,1-3.45-4.38,109.27,109.27,0,0,1-5.89-9.43c-3.58-6.48-6.81-13.14-9.86-19.88s-5.9-13.58-8.32-20.57c-1.21-3.49-2.34-7-3.34-10.57l-2.89-10.7a181.36,181.36,0,0,0-7.29-20.9l-.12-.27.27-.13.35-.17.28-.13.14.27c1.82,3.46,3.67,6.9,5.67,10.25s4.09,6.65,6.31,9.87,4.51,6.39,6.66,9.66,4.2,6.6,6.12,10Zm-.06,0c-2-3.38-4-6.7-6.23-9.92s-4.52-6.38-6.78-9.58-4.43-6.46-6.47-9.8-4-6.74-5.78-10.22l.41.14-.35.16.16-.41a179.83,179.83,0,0,1,7.12,21l2.78,10.74c1,3.56,2,7.1,3.26,10.58,2.48,7,5.39,13.76,8.48,20.47s6.43,13.31,10.05,19.73c1.82,3.21,3.75,6.36,5.87,9.36a49,49,0,0,0,3.41,4.32,11.36,11.36,0,0,0,4.15,3.28,1.31,1.31,0,0,0,1.75-.95,7.38,7.38,0,0,0,.32-2.6,30.48,30.48,0,0,0-.76-5.42,91.58,91.58,0,0,0-3.1-10.59c-2.43-7-5.31-13.77-8.35-20.5s-6.33-13.36-9.94-19.81Z" transform="translate(-91.88 -209.93)" fill="#cb93a4" fill-rule="evenodd"/><path d="M480.9,345.28c36.05,25,43.52,76.66,16.68,115.31s-77.82,49.7-113.86,24.67S340.2,408.61,367,370s77.82-49.69,113.86-24.67Z" transform="translate(-91.88 -209.93)" fill="#fee4c2" fill-rule="evenodd"/><path d="M480.9,345.28c36.05,25,43.52,76.66,16.68,115.31s-77.82,49.7-113.86,24.67S340.2,408.61,367,370s77.82-49.69,113.86-24.67Zm-54.24.12c34.85,0,63.1,31.09,63.1,69.45s-28.25,69.46-63.1,69.46-63.1-31.1-63.1-69.46,28.25-69.45,63.1-69.45Z" transform="translate(-91.88 -209.93)" fill="#d7b46a" fill-rule="evenodd"/><path d="M409.72,352.43s46.52-.52,75.06,46-75.06-46-75.06-46Z" transform="translate(-91.88 -209.93)" fill="#e7c5a6" fill-rule="evenodd"/><path d="M384.45,372.06s47.19,11.64,87.82,65.65-84.94-39.6-87.82-65.65Z" transform="translate(-91.88 -209.93)" fill="#e7c5a6" fill-rule="evenodd"/><path d="M449.58,481.57s-52-4.91-78.43-60.27,78.43,60.27,78.43,60.27Z" transform="translate(-91.88 -209.93)" fill="#e7c5a6" fill-rule="evenodd"/><path d="M595.42,288.91s-17.35,5.48-46.4,75c-1,2.31-2.24,7.64-2.72,9.41-.24.86,5.34,1.87,5.66,1,1.75-4.55,17-47.26,28.44-64.6,9.58-14.56,15-20.88,15-20.88Z" transform="translate(-91.88 -209.93)" fill="#008237" fill-rule="evenodd"/><path d="M578.18,313.07a53.33,53.33,0,0,0-4-24s2,5.8,2.67,17.91c.15,2.58-.68,5.33-.89,7.8.53-.56,1.76-1.15,2.23-1.74Z" transform="translate(-91.88 -209.93)" fill="#008237" fill-rule="evenodd"/><path d="M583.3,310.38a27.87,27.87,0,0,0-8.08,7c.09.6-3.24,5.63-3.09,6.25a109.57,109.57,0,0,1,7.11-8.58,62.15,62.15,0,0,1,4.85-4,7.35,7.35,0,0,1-.79-.67Z" transform="translate(-91.88 -209.93)" fill="#008237" fill-rule="evenodd"/><path d="M585.76,294c-1.24-1.34-2.71-.51-3.47.09,1.94-1.87,5.89-6.68,3.39-7-2.75-.34-5.12,5.58-5.12,5.58,1.42-3.18.12-6.15-.76-6.52s-1.4,1.3-1.6,5.1-1.37,4.71-1.37,4.71a11.46,11.46,0,0,1-.44-6.45c.77-3.76,3.15-9,1.14-9.4s-3.64,4.47-3.64,4.47c-.5-3.6-2.09-11-4.73-8.82-2.24,1.86,1,8.08,2,9.91a7.89,7.89,0,0,0-4.62-3.35c-3.61-1-3.66,2.86.16,3.79s7.25,9.29,7.25,9.29a4.89,4.89,0,0,1-2.79-1.69c-1.07-1.39-2.24-6.3-4.28-4.79s1.86,5.24,1.86,5.24-5.63-4-6.86-1.51c-.86,1.73,3.32,2.68,5.95,3.1-3.6,0-4.17,3-.71,2.26a10.69,10.69,0,0,1,3.41-.16,9.08,9.08,0,0,1,6.44,3.85h0a10.23,10.23,0,0,1,3.71-3.83c2.44-1.34,6.86-2,5.11-3.88Z" transform="translate(-91.88 -209.93)" fill="#2d9c37" fill-rule="evenodd"/><path d="M582.21,299.28c.83-.06,2.06,2.23,2,3.19.42-2.66,2.14-7.22,3.87-5.38,1.89,2-1.62,7.39-1.62,7.39,1.8-3,5-3.71,5.85-3.21s-.26,1.88-3.3,4.28-3.19,4.24-3.19,4.24a15.39,15.39,0,0,0,5.7-3.81c2.67-2.83,5.58-7.79,7.13-6.43s-1.57,5.55-1.57,5.55c3.27-1.71,10.35-4.78,10.08-1.37-.22,2.89-7.26,4-9.37,4.23a8,8,0,0,1,5.48,1.75c2.93,2.33-.23,4.62-3.24,2.1s-11.95-.39-11.95-.39a4.92,4.92,0,0,0,3,1.26c1.79,0,6.54-1.9,6.48.63s-5.44,1.57-5.44,1.57,6.63,2.18,5.28,4.64c-.93,1.71-4.17-1.1-6.06-3,2.1,2.9-.06,5.13-1.46,1.89a10.37,10.37,0,0,0-1.86-2.83,9.88,9.88,0,0,0-7.24-3h0a8.69,8.69,0,0,0,1.26-5.16c-.32-2.74-2.41-8,.13-8.17Z" transform="translate(-91.88 -209.93)" fill="#2d9c37" fill-rule="evenodd"/><path d="M601.83,298.35c.32-1.6-1.57-2.25-2.71-2.5,3.22.46,10.69.88,9.08-1.12-1.76-2.19-9.07-.88-9.07-.88,4-.6,5.82-3.08,5.5-3.92s-2.27-.36-6,1.46-5.9,1.38-5.9,1.38a15.8,15.8,0,0,1,6.15-3.61c4.09-1.38,10.73-2.31,9.63-4s-6.92-.37-6.92-.37c3-2.22,8.68-7.21,4.64-8-3.43-.69-6.81,4.87-7.74,6.55a5.46,5.46,0,0,0-.38-5.11c-1.82-3.15-5.43-1.21-3.41,2.07s-3.18,10.12-3.18,10.12a3.63,3.63,0,0,1-.53-2.93c.49-1.5,4.18-4.89,1.22-5.61s-3.47,4.08-3.47,4.08-.52-6.21-3.78-5.83c-2.26.27,0,3.82,1.61,6-2.73-2.63-6-1.5-2.64.65a12,12,0,0,1,2.72,2.41,6.57,6.57,0,0,1,1.28,6.72h0a16.54,16.54,0,0,1,6.37.75c3.1,1.1,7,4,7.48,1.75Z" transform="translate(-91.88 -209.93)" fill="#2d9c37" fill-rule="evenodd"/><path d="M549.34,302.68s8.08,16-.63,69.27a18.52,18.52,0,0,1-.86,3.7c-.22.75-6.21-1-6.06-1.78.83-4.27,5.89-26,7.39-48.39,1.07-15.8.16-22.8.16-22.8Z" transform="translate(-91.88 -209.93)" fill="#008237" fill-rule="evenodd"/><path d="M550.87,334.47a36.28,36.28,0,0,1,12.6-16.72s-3.55,3.62-8.3,12.78A84.18,84.18,0,0,0,551.8,339c-.22-.69-.76-3.86-.93-4.55Z" transform="translate(-91.88 -209.93)" fill="#008237" fill-rule="evenodd"/><path d="M544.11,330.06a23.22,23.22,0,0,1,6.24,9.14c-.21.46.39,5.8.13,6.25-.55-1.58-3.21-10.25-7.56-14.31.28-.06.94-1,1.19-1.08Z" transform="translate(-91.88 -209.93)" fill="#008237" fill-rule="evenodd"/><path d="M552.78,315.63c1.47-.4,2.27,1,2.61,1.83-.74-2.41-1.86-8.08.17-7,2.23,1.14,1.71,6.84,1.71,6.84.16-3.13,2.32-4.74,3.14-4.58s.56,1.7-.78,4.7-.81,4.28-.81,4.28a8.93,8.93,0,0,0,2.87-4.69c.89-3.26,1.12-8.43,2.83-7.75s1,5.26,1,5.26c1.8-2.49,5.92-7.34,7.07-4.34,1,2.56-3.9,5.68-5.39,6.56a6.25,6.25,0,0,1,4.84-.21c3.13,1.09,1.66,4-1.62,2.81s-9.18,3.41-9.18,3.41a4.05,4.05,0,0,0,2.8.13c1.36-.53,4.18-3.68,5.14-1.49s-3.48,3.05-3.48,3.05,5.87-.21,5.83,2.32c0,1.76-3.59.37-5.76-.64,2.74,1.83,2,4.41-.35,2.07a10.71,10.71,0,0,0-2.53-1.84,7.33,7.33,0,0,0-6.42-.32h0a10.56,10.56,0,0,0-1.33-4.8c-1.33-2.26-4.45-5-2.37-5.55Z" transform="translate(-91.88 -209.93)" fill="#2d9c37" fill-rule="evenodd"/><path d="M547.48,321.24c-.68-.37-2.21,1.05-2.37,1.88.24-2.38-.19-6.85-2-6-2,.94-.29,6.78-.29,6.78-.83-3.2-3.36-5-4.16-5s-.2,1.68,1.79,4.85,1.73,4.78,1.73,4.78a17.85,17.85,0,0,1-3.9-5.39c-1.61-3.4-2.93-8.67-4.52-8.14s.08,5.24.08,5.24c-2.35-2.7-7.56-8-8.1-5.07-.45,2.5,5.17,6.14,6.87,7.17a6.87,6.87,0,0,0-5-.67c-3,.8-.84,3.93,2.23,3s10,4.34,10,4.34a3.91,3.91,0,0,1-2.81-.14c-1.5-.66-5-4.13-5.54-2s4.19,3.42,4.19,3.42-6-.77-5.43,1.81c.4,1.78,3.72.71,5.7-.11-2.38,1.6-1.08,4.29.8,2.14a6.74,6.74,0,0,1,2.18-1.63,7.89,7.89,0,0,1,6.69.32h0a8.3,8.3,0,0,1,.1-4.79c.87-2.17,3.78-5.73,1.7-6.86Z" transform="translate(-91.88 -209.93)" fill="#2d9c37" fill-rule="evenodd"/><path d="M540.34,306c.5-1.34,2.18-.77,3.12-.33-2.55-1.43-8.16-5.23-6.08-5.8,2.29-.62,7,4.35,7,4.35-2.65-2.65-2.8-5.44-2.18-5.87s1.81,1,3.65,4.34,3.64,4.25,3.64,4.25a16.1,16.1,0,0,0-2.8-6c-2.33-3.25-6.72-7.58-5.13-8.21s5.19,3.54,5.19,3.54c-1.14-3.24-3-10,.32-8.37,2.81,1.39,2.7,7.28,2.6,9a4.46,4.46,0,0,1,2.64-3.51c2.77-1.28,4.49,2.11,1.51,3.38s-2.35,9.09-2.35,9.09a2.78,2.78,0,0,0,1.73-1.82c.34-1.37-.78-5.86,1.7-4.75s.64,4.86.64,4.86S558.77,300,561,302c1.52,1.44-1.77,2.77-3.92,3.44,3.19-.4,5,2.2,1.62,1.92a9.75,9.75,0,0,0-3.09.26,5.23,5.23,0,0,0-4,4.17h0a15.39,15.39,0,0,0-5-3c-2.75-.91-7-.95-6.23-2.85Z" transform="translate(-91.88 -209.93)" fill="#2d9c37" fill-rule="evenodd"/><path d="M598.33,334.63s-16.12,1.94-46.32,35.12c-1.25,1.37-.28,2.34-1,3.44-.37.54,2.65,2.52,3.07,2,2.35-2.74,16-19.29,28.6-28.81,10.6-8,15.69-11.77,15.69-11.77Z" transform="translate(-91.88 -209.93)" fill="#008237" fill-rule="evenodd"/><path d="M576.45,350a28.48,28.48,0,0,0,3.85-16.94s-.36,4.21-3.7,12.07a68.32,68.32,0,0,1-3.68,6.6c.58-.21,3-1.49,3.53-1.73Z" transform="translate(-91.88 -209.93)" fill="#008237" fill-rule="evenodd"/><path d="M583.23,352.18a20.9,20.9,0,0,0-9.6.59c-.19.37-4.06,2.73-4.21,3.13,1.36-.45,8.61-3.16,13.78-2.37-.12-.22.1-1.13,0-1.35Z" transform="translate(-91.88 -209.93)" fill="#008237" fill-rule="evenodd"/><path d="M587.8,339c-.57-1.18-1.94-1-2.69-.78,2-.75,6.4-2.93,4.56-3.74-2-.89-5.5,2.39-5.5,2.39,2-1.72,1.81-4,1.23-4.43s-1.44.51-2.65,2.94-2.37,2.74-2.37,2.74a7,7,0,0,1,1.46-4.32c1.64-2.26,4.93-5.07,3.5-5.85s-4.05,2-4.05,2c.62-2.47,1.47-7.69-1.18-6.9-2.24.66-1.52,5.5-1.25,6.94a5.53,5.53,0,0,0-2.62-3.3c-2.5-1.51-3.61,1-.93,2.51s3,7.82,3,7.82a3.69,3.69,0,0,1-1.68-1.78c-.44-1.18,0-4.66-2-4.17s0,3.88,0,3.88-3.21-4-4.86-2.66c-1.14.92,1.81,2.56,3.72,3.47-2.78-.87-4.06,1-1.18,1.3a10,10,0,0,1,2.67.72,6.73,6.73,0,0,1,3.88,4.08h0a8.94,8.94,0,0,1,3.93-1.6c2.25-.28,5.83.38,5-1.29Z" transform="translate(-91.88 -209.93)" fill="#2d9c37" fill-rule="evenodd"/><path d="M587.13,345.42c.63.25.56,2,.11,2.53,1.44-1.39,4.63-3.41,5.12-1.75.53,1.82-4.32,3.69-4.32,3.69,2.59-1.1,5.25-.38,5.65.2s-1,1-4.23,1.31-4.14,1.32-4.14,1.32a16.17,16.17,0,0,0,5.79-.2c3.16-.69,7.4-2.53,7.95-1.2s-3.5,2.64-3.5,2.64c3.13.16,9.61.87,8,2.74-1.39,1.58-7-.26-8.66-.85a6.36,6.36,0,0,1,3.28,2.93c1.15,2.36-2.12,2.58-3.26.07s-8.6-4.4-8.6-4.4a3.53,3.53,0,0,0,1.69,1.79c1.3.65,5.6,1.19,4.48,2.63s-4.65-1-4.65-1,3.94,3.57,1.91,4.51c-1.41.66-2.59-2.08-3.18-3.82.3,2.4-2.23,2.93-1.88.58a5.65,5.65,0,0,0-.16-2.29,7.27,7.27,0,0,0-4-4.25h0a6.74,6.74,0,0,0,3.11-2.53c.93-1.69,1.63-5.45,3.56-4.65Z" transform="translate(-91.88 -209.93)" fill="#2d9c37" fill-rule="evenodd"/><path d="M601.27,342.29c.6-1-.73-1.84-1.57-2.23,2.41.94,8.13,2.69,7.31,1-.9-1.83-6.86-2.37-6.86-2.37,3.26.38,5.18-.95,5.12-1.59s-1.69-.68-4.95-.18a9.45,9.45,0,0,1-4.89-.21,13.91,13.91,0,0,1,5.56-1.24c3.48-.14,8.85.54,8.36-.84S604,333,604,333c2.8-.92,8.32-3.18,5.35-4.52-2.52-1.14-6.35,2-7.44,2.92a3.47,3.47,0,0,0,.81-3.54c-.73-2.49-4-1.88-3.1.74s-4.66,6.24-4.66,6.24a2.29,2.29,0,0,1,.22-2.09c.71-.93,4.31-2.5,2.16-3.57s-3.58,2.08-3.58,2.08.94-4.31-1.68-4.69c-1.82-.26-.82,2.6,0,4.37-1.55-2.32-4.32-2.19-2.19-.08a8.63,8.63,0,0,1,1.6,2.17,4.17,4.17,0,0,1-.46,4.81h0a14.61,14.61,0,0,1,4.8,1.76c2.17,1.35,4.6,4.1,5.44,2.65Z" transform="translate(-91.88 -209.93)" fill="#2d9c37" fill-rule="evenodd"/><path d="M513.23,385.09c-9.55,17.21-14.75,35.59-19.51,54.61-4.65,18.63-10,52.32-3.8,55.15,6.52,3,35.09-25.35,38.42-29.6,11.51-14.71,28-37.41,36-56.74,5.49-13.2,5.44-29.29-13.71-38.26-16.26-7.63-30.09,1.59-37.44,14.84Z" transform="translate(-91.88 -209.93)" fill="#eb6b0c" fill-rule="evenodd"/><path d="M550.67,370.25a26.42,26.42,0,0,0-14.13-2.62c18,11.24,18.73,19.58,6.06,50.7-7.73,19-49.9,82.24-55.46,67.3.15,4.93,1,8.4,2.78,9.22,6.52,3,35.09-25.35,38.42-29.6,11.51-14.71,28-37.41,36-56.74,5.49-13.2,5.44-29.29-13.71-38.26Z" transform="translate(-91.88 -209.93)" fill="#da6113" fill-rule="evenodd"/><path d="M535.82,380.54c-12.44-7.21-22.49,10.8-10.48,17.47,10.85,6,22.83-10.32,10.48-17.47Z" transform="translate(-91.88 -209.93)" fill="#f28d22" fill-rule="evenodd"/><path d="M522.85,382c2.41,1.63,4.83,3.25,7.32,4.77,1.25.76,2.5,1.52,3.79,2.23s2.57,1.39,3.87,2.07c-4.43-3.69-8.76-7.35-13.06-11.05L520.06,376c-.78.78-1.52,1.59-2.23,2.44,1.66,1.21,3.32,2.43,5,3.6Z" transform="translate(-91.88 -209.93)" fill="#da6113" fill-rule="evenodd"/><path d="M555.23,410.65c2.41.76,4.84,1.4,7.3,2,.51-1.09,1-2.17,1.44-3.24l-1.06-.16c-2.41-.35-4.84-.82-7.28-1.25-4.88-.87-9.79-1.86-14.76-2.56,4.73,1.93,9.49,3.69,14.36,5.19Z" transform="translate(-91.88 -209.93)" fill="#ca5a16" fill-rule="evenodd"/><path d="M544.9,430.87c-5.21-.94-10.45-2-15.76-2.91a151.58,151.58,0,0,0,15.33,5.66c1.81.54,3.63,1,5.46,1.51.65-1,1.29-2,1.93-3.07-2.31-.38-4.63-.76-7-1.19Z" transform="translate(-91.88 -209.93)" fill="#ca5a16" fill-rule="evenodd"/><path d="M506.94,398.36c2,1.57,4,3.14,6.14,4.63s4.22,2.94,6.41,4.3c1.1.69,2.21,1.36,3.34,2s2.28,1.22,3.42,1.83c-3.86-3.32-7.57-6.62-11.25-10-1.82-1.7-3.68-3.35-5.47-5.06l-1.21-1.14c-.51,1.1-1,2.19-1.51,3.3l.13.12Z" transform="translate(-91.88 -209.93)" fill="#da6113" fill-rule="evenodd"/><path d="M533.37,452.91c-2.9-.5-5.8-1.11-8.71-1.73s-5.82-1.32-8.77-2a80.29,80.29,0,0,0,8.38,3.72c2.85,1.12,5.77,2.05,8.7,2.92.72.2,1.44.39,2.17.57l2.07-2.79c-1.28-.2-2.56-.4-3.84-.65Z" transform="translate(-91.88 -209.93)" fill="#ca5a16" fill-rule="evenodd"/><path d="M502.08,425.61c2.24,1.54,4.49,3,6.87,4.35a73.44,73.44,0,0,0,7.26,3.64c-2.13-1.62-4.24-3.23-6.27-4.86s-4-3.32-5.94-5c-1.62-1.48-3.21-3-4.72-4.49-.34,1.15-.67,2.31-1,3.47,1.24,1,2.5,2,3.81,2.91Z" transform="translate(-91.88 -209.93)" fill="#da6113" fill-rule="evenodd"/><path d="M492.45,449.77c1.63.94,3.3,1.81,5,2.66s3.42,1.61,5.12,2.39,3.46,1.39,5.21,2l-2.29-1.56c-.77-.51-1.57-1-2.31-1.53-1.51-1-3-2-4.49-3.07s-3-2.06-4.39-3.13c-.7-.48-1.38-1-2-1.49-.22,1-.45,2.09-.67,3.16l.89.53Z" transform="translate(-91.88 -209.93)" fill="#da6113" fill-rule="evenodd"/><path d="M489.19,475.4l-1.53-1.23c-.09.94-.18,1.86-.25,2.77,3.11,1.65,6.28,3.2,9.52,4.57l-7.74-6.11Z" transform="translate(-91.88 -209.93)" fill="#da6113" fill-rule="evenodd"/><path d="M511.73,472.72c-2.73-.69-5.47-1.37-8.24-2,2.59,1.34,5.23,2.58,7.9,3.71,1.87.82,3.76,1.56,5.66,2.28l2.22-2.1-7.54-1.87Z" transform="translate(-91.88 -209.93)" fill="#ca5a16" fill-rule="evenodd"/><path d="M243.33,390.17c2.07-2.54,36.53-33.2,57.07,32.33,16.47,52.55,19,89.05,37.55,106.85,9.72,9.32,20.91,13,53.64,12.63,54.08-.63,126.45-4,137,16,14.64,27.68-35,33.62-117.26,29.38-102.31-5.28-76.81-9-76.81-9s117.38,5,161.7-4c9.91-2,36-11.34.17-14-8.69-.64-19.49.52-36.77.52-88.49,0-139.7,11.9-155.19-45.82s-25.18-135.92-53.91-121.52c-18.62,9.32-9-1.1-7.21-3.34Zm221.5,208a26.28,26.28,0,1,1-26.27,26.28,26.29,26.29,0,0,1,26.27-26.28Zm-91.63-1.35a26.28,26.28,0,1,1-26.28,26.28,26.28,26.28,0,0,1,26.28-26.28Zm18.13-204.6c15.76-1.87,112.74-3.95,151.24-3.07,17.63.41,27.86-1.61,29.59,5.61,2,8.2-4.33,26.16-14.65,47.17-31.82,64.77-17.52,64-120.83,61.54S320.79,501.87,326,498.5s129-3.17,159.68-5.39,35.48-2.25,50.53-42c-58.62-.45-120.21,3-142.61,2.92s-71.79-9.23-1.8-13.93c45.36-3,116.12.21,147.08-1.14,3.31-.15,9.13-17.3,12.6-31.2-65.7,1.31-122,.43-149.8-.89-90.28-4.3-39-11.29-10.31-14.68Z" transform="translate(-91.88 -209.93)" fill="#246822" fill-rule="evenodd"/><path d="M369.54,227.25h21a2.78,2.78,0,0,1,2.77,2.77v9.58a2.78,2.78,0,0,1-2.77,2.77h-21a2.78,2.78,0,0,1-2.77-2.77V230a2.78,2.78,0,0,1,2.77-2.77Z" transform="translate(-91.88 -209.93)" fill="#9d9d9c" fill-rule="evenodd"/><polygon points="278.36 32.44 287.22 32.44 287.22 17.32 278.36 17.32 278.36 32.44 278.36 32.44" fill="#b2b2b2" fill-rule="evenodd"/><path d="M941.84,698.44l-18.05,18.29-5-5.05,18.89-19.13-4.15-4.09L924,698.13l-5.3-5.38,9.8-9.93-4.15-4.1-9.54,9.67-9.54-9.67-4.15,4.1,9.81,9.93-5.31,5.38-9.55-9.67-4.15,4.09,18.89,19.13-5,5.05-18.06-18.29h-.39l-18,18.29-5-5.05,18.88-19.13-4.15-4.09-9.55,9.67-5.3-5.38,9.81-9.93-4.15-4.1-9.54,9.67-9.55-9.67-4.15,4.1,9.81,9.93-5.3,5.38-9.55-9.67-4.15,4.09,18.88,19.13-5,5.05-18.06-18.29h-.39l-18.06,18.29-5-5.05,18.89-19.13-4.15-4.09-9.55,9.67-5.31-5.38,9.81-9.93-4.15-4.1-9.54,9.67-9.54-9.67-4.15,4.1,9.8,9.93-5.3,5.38-9.55-9.67L783,692.55l18.89,19.13-5,5.05-18-18.29h-.39l-18.06,18.29-5-5.05,18.88-19.13-4.15-4.09-9.54,9.67-5.31-5.38,9.81-9.93-4.15-4.1-9.54,9.67-9.55-9.67-4.15,4.1,9.81,9.93-5.3,5.38-9.55-9.67-4.15,4.09,18.88,19.13-5,5.05-18-18.29H724L705.9,716.73l-5-5.05,18.89-19.13-4.15-4.09-9.55,9.67-5.31-5.38,9.81-9.93-4.15-4.1-9.54,9.67-9.54-9.67-4.15,4.1,9.81,9.93-5.31,5.38-9.55-9.67L674,692.55l18.89,19.13-5,5.05-18.06-18.29h-.39l-18.05,18.29-5-5.05,18.88-19.13-4.15-4.09-9.55,9.67-5.3-5.38,9.81-9.93-4.15-4.1-9.55,9.67-9.54-9.67-4.15,4.1,9.81,9.93-5.31,5.38-9.54-9.67-4.15,4.09,18.88,19.13-5,5.05-18.05-18.29H615L597,716.73l-5-5.05,18.89-19.13-4.16-4.09-9.54,9.67-5.31-5.38,9.81-9.93-4.15-4.1L588,688.39l-9.54-9.67-4.15,4.1,9.8,9.93-5.3,5.38-9.55-9.67-4.15,4.09L584,711.68l-5,5.05-18.05-18.29h-.32l-18.06,18.28-5-5,18.88-19.13-4.15-4.1-9.54,9.67-5.31-5.37,9.81-9.93-4.15-4.1-9.54,9.66L524,678.73l-4.15,4.1,9.8,9.93-5.3,5.37-9.55-9.67-4.15,4.1,18.88,19.13-5,5-18.05-18.28h-.4l-18.05,18.28-5-5L502,692.56l-4.15-4.1-9.55,9.67-5.3-5.37,9.8-9.93-4.15-4.1-9.54,9.66-9.54-9.66-4.15,4.1,9.81,9.93-5.31,5.37-9.55-9.67-4.15,4.1,18.89,19.13-5,5-18.06-18.28h-.39l-18.05,18.28-5-5,18.88-19.13-4.15-4.1-9.55,9.67-5.3-5.37,9.81-9.93-4.15-4.1-9.54,9.66-9.55-9.66-4.15,4.1,9.81,9.93-5.3,5.37-9.55-9.67-4.15,4.1,18.88,19.13-5,5-18.05-18.28h-.4l-18.05,18.28-5-5L393,692.56l-4.15-4.1-9.55,9.67L374,692.76l9.81-9.93-4.15-4.1-9.54,9.66-9.54-9.66-4.15,4.1,9.8,9.93-5.3,5.37-9.55-9.67-4.15,4.1,18.89,19.13-5,5-18.06-18.28h-.39l-18.06,18.28-5-5,18.88-19.13-4.15-4.1-9.54,9.67-5.31-5.37,9.81-9.93-4.15-4.1-9.54,9.66-9.55-9.66-4.14,4.1,9.8,9.93-5.3,5.37-9.55-9.67-4.15,4.1,18.88,19.13-5,5-18.05-18.28h-.4l-18.05,18.28-5-5,18.89-19.13-4.15-4.1-9.55,9.67-5.31-5.37,9.81-9.93-4.15-4.1-9.54,9.66-9.54-9.66-4.15,4.1,9.8,9.93-5.3,5.37-9.55-9.67-4.15,4.1,18.89,19.13-5,5-18.05-18.28h-.39l-18.05,18.28-5-5,18.88-19.13-4.15-4.1-9.55,9.67-5.3-5.37,9.81-9.93-4.15-4.1-9.55,9.66-9.54-9.66-4.15,4.1,9.81,9.93-5.3,5.37L188,688.46l-4.15,4.1,18.88,19.13-5,5-18.06-18.28h-.39l-18.06,18.28-5-5,18.89-19.13-4.16-4.1-9.54,9.67-5.31-5.37,9.81-9.93-4.15-4.1-9.54,9.66-9.54-9.66-4.15,4.1,9.8,9.93-5.3,5.37-9.55-9.67-4.15,4.1,18.89,19.13-5,5-18.05-18.28H125l0,8.1,4.69,4.75L125,716.08v9.09l4.5-4.51,4.71-4.81,9,9.14.07,0c3-3,5.9-5.9,9-8.86,3.06,3,6,5.83,9,8.86l.07,0,9-9.14,4.71,4.81,4.49,4.5,4.48-4.5,4.71-4.81,9,9.14.07,0c3-3,5.91-5.9,9-8.86,3.06,3,6,5.83,9,8.86l.07,0,9-9.14,4.71,4.81,4.46,4.47v0l0,0,0,0v0l4.45-4.47,4.71-4.81,9,9.14.07,0c3-3,5.9-5.9,9-8.86,3.06,3,6,5.83,9,8.86l.07,0,9-9.14,4.71,4.81,4.48,4.5,4.48-4.5,4.71-4.81,9,9.14.07,0c3-3,5.9-5.9,9-8.86,3.06,3,6,5.83,9,8.86l.07,0,9-9.14,4.71,4.81,4.47,4.48v0h0v0l4.46-4.48,4.71-4.81,9,9.14.07,0c3-3,5.9-5.9,9-8.86,3.06,3,6,5.83,9,8.86l.07,0,9-9.14,4.71,4.81,4.48,4.5,4.48-4.5,4.71-4.81,9,9.14.08,0c3-3,5.9-5.9,9-8.86,3.05,3,6,5.83,9,8.86l.07,0,9-9.14,4.71,4.81,4.46,4.47v0l0,0,0,0v0l4.46-4.47,4.71-4.81,9,9.14.07,0c3-3,5.9-5.9,9-8.86,3.06,3,6,5.83,9,8.86l.07,0,9-9.14,4.71,4.81,4.48,4.5,4.48-4.5,4.71-4.81,9,9.14.07,0c3-3,5.9-5.9,9-8.86,3.06,3,6,5.83,9,8.86l.07,0,9-9.14,4.71,4.81,4.39,4.41v.1l0,0,.06,0v-.11l4.39-4.41,4.71-4.8,9,9.13.07,0c3-3,5.9-5.89,9-8.86,3.06,3,6,5.83,9,8.86l.07,0,9-9.13,4.71,4.8,4.49,4.5,4.48-4.5,4.71-4.8,9,9.13.06,0c3-3,5.9-5.89,9-8.86,3.06,3,6,5.83,9,8.86l.06,0,9-9.13,4.71,4.8,4.46,4.47v0l0,0,0,0v0l4.46-4.47,4.7-4.8,9,9.13.07,0c3-3,5.9-5.89,9-8.86,3.06,3,6,5.83,9,8.86l.07,0,9-9.13,4.71,4.8,4.48,4.5,4.48-4.5,4.71-4.8,9,9.13.06,0c3-3,5.91-5.89,9-8.86,3.06,3,6,5.83,9,8.86l.07,0,9-9.13,4.71,4.8,4.47,4.48v0l0,0v0l4.46-4.48,4.71-4.8,9,9.13.07,0c3-3,5.9-5.89,9-8.86,3.06,3,6,5.83,9,8.86l.07,0,9-9.13,4.72,4.8,4.48,4.5,4.48-4.5,4.71-4.8,9,9.13.06,0c3-3,5.91-5.89,9-8.86,3,3,6,5.83,9,8.86l.07,0,9-9.13,4.71,4.8,4.46,4.47v0l0,0,0,0v0l4.46-4.47,4.7-4.8,9,9.13.07,0c3-3,5.9-5.89,9-8.86,3.06,3,6,5.83,9,8.86l.07,0,9-9.13,4.71,4.8,4.48,4.5,4.48-4.5,4.71-4.8,9,9.13.07,0c3-3,5.9-5.89,9-8.86,3.06,3,6,5.83,9,8.86l.07,0,9-9.13,4.71,4.8,4.42,4.43,4.41-4.42,4.71-4.81,9,9.14.07,0c3-3,5.9-5.9,9-8.86,3.06,3,6,5.83,9,8.86l.07,0,9-9.14,4.71,4.81,4.48,4.5,4.48-4.5,4.71-4.81,9,9.14.07,0c3-3,5.9-5.9,9-8.86,3.06,3,6,5.83,9,8.86l.07,0,9-9.14,4.71,4.81,4.46,4.47v0l0,0,0,0v0l4.46-4.47,4.71-4.81,9,9.14.07,0c3-3,5.9-5.9,9-8.86,3.06,3,6,5.83,9,8.86l.07,0,9-9.14,4.71,4.81,4.48,4.5,4.48-4.5,4.71-4.81,9,9.14.07,0c3-3,5.9-5.9,9-8.86,3.06,3,6,5.83,9,8.86l.07,0,9-9.14,4.71,4.81,4.46,4.48v0h0v0l4.47-4.48,4.71-4.81,9,9.14.07,0c3-3,5.9-5.9,9-8.86,3.06,3,6,5.83,9,8.86l.07,0,9-9.14,4.71,4.81,4.48,4.5,4.48-4.5,4.71-4.81,9,9.14.07,0c3-3,5.9-5.9,9-8.86,3.06,3,6,5.83,9,8.86l.07,0,9-9.14,4.71,4.81,4.46,4.47v0l0,0,0,0v0l4.46-4.47,4.71-4.81,9,9.14.06,0c3-3,5.91-5.9,9-8.86,3.06,3,6,5.83,9,8.86l.06,0,9-9.14,4.71,4.81,4.48,4.5,4.49-4.5,4.71-4.81,9,9.14.07,0c3-3,5.9-5.9,9-8.86,3.06,3,6,5.83,9,8.86l.07,0,9-9.14,4.71,4.81,4.39,4.41v.1l0,0,.06,0v-.11l4.39-4.41,4.71-4.8,9,9.13.07,0c3-3,5.9-5.89,9-8.86,3.06,3,6,5.83,9,8.86l.07,0,9-9.13,4.71,4.8,4.48,4.5,4.48-4.5,4.71-4.8,9,9.13.07,0c3-3,5.9-5.89,9-8.86,3,3,6,5.83,9,8.86l.07,0,9-9.13,4.72,4.8,4.45,4.47v0l0,0v0l4.45-4.47,4.72-4.8,9,9.13.07,0c3-3,5.91-5.89,9-8.86,3.06,3,6,5.83,9,8.86l.07,0,9-9.13,4.71,4.8,4.3,4.31v-9.09l-4.51-4.58,4.51-4.56v-8.29h0l-18.06,18.29-5-5.05,18.88-19.13-4.15-4.09-9.54,9.67-5.31-5.38,9.8-9.93-4.15-4.1-9.54,9.67-9.54-9.67-4.15,4.1,9.81,9.93-5.3,5.38-9.55-9.67-4.15,4.09,18.89,19.13-5,5.05-18-18.29h-.39l-18.06,18.29-5-5.05,18.87-19.13-4.15-4.09-9.54,9.67-5.31-5.38,9.81-9.93-4.15-4.1-9.54,9.67-9.54-9.67-4.15,4.1,9.8,9.93-5.29,5.38-9.56-9.67-4.15,4.09,18.89,19.13-5,5.05-18-18.29h-.4l-18,18.29-5-5.05,18.89-19.13-4.15-4.09-9.55,9.67-5.3-5.38,9.8-9.93-4.15-4.1-9.54,9.67-9.54-9.67-4.15,4.1,9.81,9.93-5.31,5.38-9.55-9.67-4.14,4.09,18.88,19.13-5,5.05-18.06-18.29H1432l-18,18.28-5-5,18.89-19.13-4.15-4.1-9.55,9.67-5.3-5.37,9.8-9.93-4.15-4.1-9.54,9.66-9.54-9.66-4.15,4.1,9.81,9.93-5.31,5.37-9.55-9.67-4.15,4.1,18.89,19.13-5,5-18.06-18.28h-.39l-18.06,18.28-5-5,18.88-19.13-4.15-4.1-9.55,9.67-5.3-5.37,9.81-9.93-4.15-4.1-9.55,9.66-9.54-9.66-4.15,4.1,9.81,9.93-5.3,5.37-9.55-9.67-4.15,4.1,18.88,19.13-5,5-18.06-18.28H1323L1305,716.73l-5-5,18.89-19.13-4.15-4.1-9.55,9.67-5.31-5.37,9.81-9.93-4.15-4.1-9.54,9.66-9.54-9.66-4.15,4.1,9.8,9.93-5.3,5.37-9.55-9.67-4.15,4.1L1292,711.69l-5,5-18.06-18.28h-.4l-18,18.28-5-5,18.88-19.13-4.15-4.1-9.55,9.67-5.3-5.37,9.81-9.93-4.16-4.1-9.54,9.66-9.54-9.66-4.15,4.1,9.81,9.93-5.31,5.37-9.54-9.67-4.15,4.1,18.88,19.13-5,5-18.06-18.28h-.39l-18,18.28-5-5,18.89-19.13-4.15-4.1-9.55,9.67-5.31-5.37,9.81-9.93-4.15-4.1-9.54,9.66-9.54-9.66-4.15,4.1,9.81,9.93-5.31,5.37-9.55-9.67-4.15,4.1L1183,711.69l-5,5-18-18.28h-.4l-18,18.28-5-5,18.88-19.13-4.15-4.1-9.55,9.67-5.3-5.37,9.81-9.93-4.15-4.1-9.55,9.66-9.54-9.66-4.15,4.1,9.81,9.93-5.31,5.37-9.54-9.67-4.15,4.1,18.88,19.13-5,5-18-18.28h-.39l-18.06,18.28-5-5L1101,692.56l-4.14-4.1-9.55,9.67-5.31-5.37,9.81-9.93-4.15-4.1-9.54,9.66-9.54-9.66-4.15,4.1,9.8,9.93-5.3,5.37-9.55-9.67-4.15,4.1,18.89,19.13-5,5-18-18.28h-.4l-18.05,18.28-5-5,18.89-19.13-4.15-4.1-9.55,9.67-5.3-5.37,9.8-9.93-4.15-4.1-9.54,9.66-9.54-9.66-4.15,4.1,9.81,9.93-5.31,5.37-9.54-9.67-4.15,4.1,18.88,19.13-5,5-18.06-18.28h-.25l-18.06,18.29-5-5.05,18.88-19.13L988,688.46l-9.54,9.67-5.31-5.38,9.81-9.93-4.15-4.1-9.54,9.67-9.55-9.67-4.14,4.1,9.8,9.93-5.3,5.38-9.55-9.67-4.15,4.09,18.88,19.13-5,5.05-18-18.29ZM996.45,716l-4.62-4.7,4.61-4.67,4.62,4.68L996.45,716Zm435.68-9.41,4.64,4.71-4.65,4.73-4.65-4.72,4.66-4.72Zm-217.86,0,4.68,4.75-4.68,4.76-4.69-4.76,4.69-4.75Zm-109,0,4.68,4.74-4.68,4.76-4.68-4.76,4.68-4.74Zm-54.47,9.5-4.69-4.76,4.69-4.75,4.69,4.75-4.69,4.76Zm27.24-18.93,5.09,5.15-5.09,5-5.09-5,5.09-5.15Zm-54.48,0,5.09,5.15-5.09,5-5.09-5,5.09-5.15Zm136.18,18.93-4.69-4.76,4.69-4.75,4.69,4.75-4.69,4.76ZM1187,697.13l5.09,5.15-5.09,5-5.09-5,5.09-5.15Zm-54.48,0,5.09,5.15-5.09,5-5.09-5,5.09-5.15Zm190.66,9.43,4.69,4.74-4.69,4.76-4.68-4.76,4.68-4.74Zm-54.47,9.5-4.69-4.76,4.69-4.75,4.69,4.75-4.69,4.76ZM1296,697.13l5.09,5.15-5.09,5-5.09-5,5.09-5.15Zm-54.48,0,5.09,5.15-5.09,5-5.09-5,5.09-5.15Zm136.18,18.93L1373,711.3l4.69-4.75,4.69,4.75-4.69,4.76Zm27.24-18.93,5.09,5.15-5.09,5-5.09-5,5.09-5.15Zm-54.48,0,5.1,5.15-5.1,5-5.09-5,5.09-5.15Zm190.6,9.42,4.67,4.74-4.67,4.76-4.69-4.76,4.69-4.74Zm-54.48,9.5-4.69-4.76,4.69-4.75,4.69,4.75-4.69,4.76Zm27.24-18.93,5.09,5.16-5.09,4.94-5.09-4.94,5.09-5.16Zm-54.48,0,5.09,5.15-5.09,5-5.09-5,5.09-5.15Zm108.94,0,5.09,5.15-5.09,5-5.09-5,5.09-5.15ZM560.77,706.58l4.65,4.71L560.76,716l-4.64-4.72,4.65-4.72Zm-217.86,0,4.69,4.75-4.69,4.76-4.69-4.76,4.69-4.75Zm-108.94,0,4.68,4.74L234,716.06l-4.69-4.76,4.69-4.74Zm-54.47,9.5-4.69-4.76,4.69-4.75,4.69,4.75-4.69,4.76Zm27.23-18.93,5.1,5.15-5.1,5-5.09-5,5.09-5.15Zm-54.47,0,5.09,5.15-5.09,5-5.09-5,5.09-5.15Zm136.18,18.93-4.69-4.76,4.69-4.75,4.69,4.75-4.69,4.76Zm27.24-18.93,5.09,5.15-5.09,5-5.09-5,5.09-5.15Zm-54.48,0,5.09,5.15-5.09,5-5.09-5,5.09-5.15Zm190.66,9.43,4.68,4.74-4.68,4.76-4.69-4.76,4.69-4.74Zm-54.47,9.5-4.69-4.76,4.69-4.75,4.69,4.75-4.69,4.76Zm27.24-18.93,5.09,5.15-5.09,5-5.09-5,5.09-5.15Zm-54.48,0,5.09,5.15-5.09,5-5.09-5,5.09-5.15Zm136.18,18.93-4.69-4.76,4.69-4.75L511,711.3l-4.69,4.76Zm27.24-18.93,5.09,5.15-5.09,5-5.09-5,5.09-5.15Zm-54.48,0,5.09,5.15-5.09,5-5.09-5,5.09-5.15Zm299.53,9.41,4.69,4.75-4.69,4.76-4.69-4.76,4.69-4.75Zm-108.94,0,4.68,4.74-4.68,4.76L665,711.29l4.69-4.74Zm-54.47,9.5-4.69-4.76,4.69-4.75,4.68,4.75-4.68,4.76Zm27.23-18.93,5.1,5.16-5.1,4.94-5.09-4.94,5.09-5.16Zm-54.47,0,5.09,5.15-5.09,5-5.09-5,5.09-5.15Zm136.18,18.93-4.69-4.76,4.69-4.75,4.69,4.75-4.69,4.76Zm27.24-18.93,5.09,5.16-5.09,4.94-5.09-4.94,5.09-5.16Zm-54.48,0,5.09,5.15-5.09,5-5.09-5,5.09-5.15Zm190.66,9.43,4.68,4.74-4.68,4.76-4.69-4.76,4.69-4.74Zm-54.47,9.5-4.69-4.76,4.69-4.75,4.69,4.75-4.69,4.76Zm27.24-18.93,5.09,5.16-5.09,4.94-5.1-4.94,5.1-5.16Zm-54.48,0,5.09,5.15-5.09,5-5.09-5,5.09-5.15ZM942,716.05l-4.69-4.76,4.69-4.75,4.69,4.75L942,716.05Zm27.24-18.93,5.09,5.16-5.09,4.94-5.09-4.94,5.09-5.16Zm-54.48,0,5.09,5.15-5.09,5-5.09-5,5.09-5.15Z" transform="translate(-91.88 -209.93)" fill="#e30613" fill-rule="evenodd"/><path d="M397.53,289.05a18.53,18.53,0,0,1,15.36,18.2V476.77a18.52,18.52,0,0,1-18.47,18.47H365.06a18.52,18.52,0,0,1-18.47-18.47V307.25a18.54,18.54,0,0,1,16.49-18.36l6.79-56.07h20.92l6.74,56.23Z" transform="translate(-91.88 -209.93)" fill="#f5a053" fill-rule="evenodd"/><polygon points="259.23 175.39 323.51 175.39 323.51 123.9 259.23 123.9 259.23 175.39 259.23 175.39" fill="#ef7d00" fill-rule="evenodd"/><path d="M489.15,329A28.26,28.26,0,0,1,515.22,357V467.69a28.25,28.25,0,0,1-28.16,28.17H409.53a28.26,28.26,0,0,1-28.17-28.17V357A28.26,28.26,0,0,1,407.44,329V313.1h81.71V329Z" transform="translate(-91.88 -209.93)" fill="#62275a" fill-rule="evenodd"/><path d="M493.23,306.19H403.69a1.91,1.91,0,0,0-1.9,1.9v7.51a1.91,1.91,0,0,0,1.9,1.9h89.54a1.91,1.91,0,0,0,1.9-1.9v-7.51a1.91,1.91,0,0,0-1.9-1.9Z" transform="translate(-91.88 -209.93)" fill="#c6c6c6" fill-rule="evenodd"/><polygon points="367.73 107.57 399.16 107.57 399.16 96.26 367.73 96.26 367.73 107.57 367.73 107.57" fill="#b2b2b2" fill-rule="evenodd"/><polygon points="322 107.57 343.85 107.57 343.85 96.26 322 96.26 322 107.57 322 107.57" fill="#dadada" fill-rule="evenodd"/><polygon points="322 107.57 343.85 107.57 343.85 96.26 322 96.26 322 107.57 322 107.57" fill="#dadada" fill-rule="evenodd"/><polygon points="327.35 107.57 331.9 107.57 331.9 96.26 327.35 96.26 327.35 107.57 327.35 107.57" fill="#ededed" fill-rule="evenodd"/><polygon points="373.94 107.57 395.54 107.57 395.54 96.26 373.94 96.26 373.94 107.57 373.94 107.57" fill="#9d9d9c" fill-rule="evenodd"/><polygon points="386.35 107.57 393.27 107.57 393.27 96.26 386.35 96.26 386.35 107.57 386.35 107.57" fill="#878787" fill-rule="evenodd"/><path d="M413.28,335.42s-27.66-4.72-27.34,37.4,4.18,29.37,4.18,29.37-4.68-52.68,17.5-54.83,17-15.4,17-15.4V317.5h-11l-.31,17.92Z" transform="translate(-91.88 -209.93)" fill="#ad4582" fill-rule="evenodd"/><path d="M478.56,335.42s27.65-4.72,27.34,37.4-4.19,29.37-4.19,29.37,4.68-52.68-17.49-54.83-17-15.4-17-15.4V317.5h11l.32,17.92Z" transform="translate(-91.88 -209.93)" fill="#56365d" fill-rule="evenodd"/><polygon points="315.56 112.92 397.26 112.92 397.26 107.57 315.56 107.57 315.56 112.92 315.56 112.92" fill="#4b2f51" fill-rule="evenodd"/><path d="M528.22,308.92H646.28a185.91,185.91,0,0,1,30.12,2.15q12.9,2.16,21.51,8.13a36.33,36.33,0,0,1,12.9,16.25q4.31,10.28,4.31,26.53v11.47q-.48,16.74-2.39,32.51a96.64,96.64,0,0,1-8.13,29.16q-4.79,7.17-15.3,17a200.71,200.71,0,0,1-23.42,18.64,209.64,209.64,0,0,1-26,15.29q-13.14,6.47-23.18,6.94a37.09,37.09,0,0,0-11,4.06q-5.73,3.11-8.6,11.23v142H543.51V344.3l-15.29-35.38Zm68.83,146.75q3.83,5.26,9.56,5.26a25.78,25.78,0,0,0,9.08-1.44,94.25,94.25,0,0,0,22-10.75,51.85,51.85,0,0,0,13.62-13.38,49.5,49.5,0,0,0,7.17-16.26,132.6,132.6,0,0,0,3.11-19.83V376.8q-5.75-22.47-17.21-33.22T609,327.09h-4.78Q600.4,328,599,330a12.35,12.35,0,0,0-1.91,3.34V455.67Z" transform="translate(-91.88 -209.93)" fill="#e30613"/><path d="M826.49,461.89c1.59,0,3.27-.08,5-.24a12.6,12.6,0,0,0,4.54-1.2,94.65,94.65,0,0,0,22-10.75,51.88,51.88,0,0,0,13.62-13.39,46.06,46.06,0,0,0,6.93-16,107.54,107.54,0,0,0,3.35-18.64V333.78a7,7,0,0,0-1.43-3.59c-1-1.43-2.87-2.47-5.74-3.1H870q-23.9,5.73-35.37,16.49T817.41,376.8v63.57l-53.54-13.86V362q0-16.25,4.3-26.53a36.42,36.42,0,0,1,12.91-16.25q8.61-6,21.51-8.13a185.82,185.82,0,0,1,30.12-2.15h76.95a17,17,0,0,1,9.8,3.11,36.72,36.72,0,0,1,8.13,7.65A38.11,38.11,0,0,1,933.33,330a31.31,31.31,0,0,1,2.15,11v33.46q-.48,16.72-2.39,32.5A96.48,96.48,0,0,1,925,436.07q-6.21,9.57-20.55,22a197.4,197.4,0,0,1-32,22.47,198,198,0,0,1,32,22.46q14.34,12.43,20.55,22a101.56,101.56,0,0,1,8.37,29.16,241.09,241.09,0,0,1,2.15,32.51v10.51q0,16.26-4.3,26.53a36.35,36.35,0,0,1-12.91,16.25q-8.61,6-21.51,8.13a185.82,185.82,0,0,1-30.12,2.15H789.69a21.42,21.42,0,0,1-9.56-3.58,35,35,0,0,1-8.37-7.65A39.41,39.41,0,0,1,766,629a29.51,29.51,0,0,1-2.15-10.76V533.11l53.54-14.34V625.36a7,7,0,0,0,1.43,3.59q1.44,2.14,5.74,3.11h4.78q23.89-4.78,35.37-16.49t17.21-33.23V560.83a119.57,119.57,0,0,0-3.35-18.64,56.57,56.57,0,0,0-7.4-16.73A54.88,54.88,0,0,0,857.8,511.6q-8.37-6.21-21.75-11a12.81,12.81,0,0,0-4.54-1.19c-1.75-.16-3.43-.24-5-.24h-9.08l9.08-37.28Z" transform="translate(-91.88 -209.93)" fill="#e30613"/><path d="M1053.07,650.22a185.91,185.91,0,0,1-30.12-2.15q-12.9-2.15-21.51-8.13a36.33,36.33,0,0,1-12.9-16.25q-4.31-10.28-4.31-26.53V308.92h53.54V582.34q5.74,21.51,17.21,33.23t35.37,16.49h4.78q4.3-1,5.74-3.11a7,7,0,0,0,1.43-3.59V308.92h53.54V614.85l15.29,35.37Z" transform="translate(-91.88 -209.93)" fill="#e30613"/><polygon points="1097.41 98.99 1166.25 98.99 1166.25 258.17 1230.78 258.17 1230.78 98.99 1284.32 98.99 1284.32 440.29 1230.78 440.29 1230.78 285.89 1166.25 285.89 1166.25 440.29 1112.71 440.29 1112.71 134.36 1097.41 98.99 1097.41 98.99" fill="#e30613"/><path d="M1485.66,327.09c-2.86.63-4.78,1.67-5.73,3.1a7,7,0,0,0-1.44,3.59V468.1H1543V376.8q-5.74-22.47-17.22-33.22t-35.37-16.49ZM1425,650.22V341a31.09,31.09,0,0,1,2.15-11,37.82,37.82,0,0,1,5.73-10.28A36.72,36.72,0,0,1,1441,312a17,17,0,0,1,9.8-3.11h77a185.69,185.69,0,0,1,30.11,2.15q12.92,2.16,21.51,8.13a36.44,36.44,0,0,1,12.92,16.25q4.29,10.28,4.3,26.53V650.22H1543V495.82h-64.54v154.4Z" transform="translate(-91.88 -209.93)" fill="#e30613"/><path d="M178,454.24q1,6.69,9.09,6.69c1.59,0,3.26-.08,5-.24a12.66,12.66,0,0,0,4.54-1.2,94.25,94.25,0,0,0,22-10.75,52.16,52.16,0,0,0,13.62-13.38,49.92,49.92,0,0,0,7.17-16.26,133.91,133.91,0,0,0,3.11-19.83V308.92H296v64.53a236.54,236.54,0,0,1-2.15,33,101.23,101.23,0,0,1-8.36,28.68q-6.22,9.56-21.27,22a228.1,228.1,0,0,1-32.75,22.47A228.1,228.1,0,0,1,264.25,502q15,12.42,21.27,22a101.06,101.06,0,0,1,8.36,27.72A209.11,209.11,0,0,1,296,582.82v67.4H242.5V559.88a141.09,141.09,0,0,0-3.11-19.6,49.64,49.64,0,0,0-7.17-16.49A52.19,52.19,0,0,0,218.6,510.4a94.25,94.25,0,0,0-22-10.75,12.66,12.66,0,0,0-4.54-1.2c-1.76-.16-3.43-.24-5-.24a8.81,8.81,0,0,0-4.78,1.2c-1.28.79-2.71,2.63-4.31,5.5V650.22H124.43V344.3l-15.3-35.38H178V454.24Z" transform="translate(-91.88 -209.93)" fill="#e30613"/><path d="M335.9,453.61s16.42,1,26.13,11,12.63,17.7,12.63,17.7,5.46-.08,12.49-5.09,9.23-10.84,9.23-10.84-4.82-3.77-13.24-15.57-2.85-28.93-2.85-28.93l-8.3-.65s-2.63,13.26-1.8,22.14L359,427.77l-10.39,7.43,11.73,16.43c-8.94-5.7-21-6.21-21-6.21l-3.48,8.19Z" transform="translate(-91.88 -209.93)" fill="#44ac3b" fill-rule="evenodd"/><path d="M370.19,443.41,359,427.77l-5,3.59,8,8.47a21.9,21.9,0,0,0,4.07,3.43,4.71,4.71,0,0,0,4.1.15Z" transform="translate(-91.88 -209.93)" fill="#44ac3b" fill-rule="evenodd"/><path d="M380.29,421.92l-8.3-.65s-.31,1.55-.68,3.92l4,.31s-5.58,17.13,2.85,28.93c2.95,4.13,5.45,7.28,7.47,9.63a10.52,10.52,0,0,1-.85,14.7l-.24.21c.85-.5,1.74-1.06,2.65-1.71,7-5,9.23-10.84,9.23-10.84s-4.82-3.77-13.24-15.57-2.85-28.93-2.85-28.93Z" transform="translate(-91.88 -209.93)" fill="#44ac3b" fill-rule="evenodd"/><path d="M339.38,445.42h0l-.56,1.32-1.1,2.59c3.46.47,9.54.15,14.93,2.13a11.41,11.41,0,0,0,7.71.17c-8.94-5.7-21-6.21-21-6.21Z" transform="translate(-91.88 -209.93)" fill="#44ac3b" fill-rule="evenodd"/><path d="M337.18,464.92c-9.15,8.19-20.78,5.25-25.44-3.81-3.63,1.89-16.09,1.49-20.64-9.45-3.85-9.27,2.78-18.57,10.27-21.77a19.06,19.06,0,0,1,17-31.76,23.42,23.42,0,0,1,40.5-17.75c2.32-7.65,11.59-12.37,19.14-9.73s11.87,12.09,8.92,19.52a15.91,15.91,0,0,1,12.76,27.42c-4.86,4.54-11.25,6.21-17.08,3-1.11,4.32-6.42,7.11-10.83,7.78A11.72,11.72,0,0,1,360.35,423c1,5.67-2.21,11.09-6.46,15s-8,3.67-15,2.39c6.1,10.14,6.16,17.53-1.67,24.54Z" transform="translate(-91.88 -209.93)" fill="#44ac3b" fill-rule="evenodd"/><path d="M316.67,412.63a6.39,6.39,0,1,1-8.92-1.49,6.39,6.39,0,0,1,8.92,1.49Z" transform="translate(-91.88 -209.93)" fill="#44ac3b" fill-rule="evenodd"/><path d="M310.86,443.56a6.39,6.39,0,1,1-8.92-1.49,6.38,6.38,0,0,1,8.92,1.49Z" transform="translate(-91.88 -209.93)" fill="#44ac3b" fill-rule="evenodd"/><path d="M333.2,449.83a6.39,6.39,0,1,1-8.92-1.49,6.39,6.39,0,0,1,8.92,1.49Z" transform="translate(-91.88 -209.93)" fill="#44ac3b" fill-rule="evenodd"/><path d="M387,390.17c2.95-7.43-1.38-16.89-8.92-19.52s-16.82,2.08-19.14,9.73a23.42,23.42,0,0,0-40.5,17.75,19.62,19.62,0,0,0-16.27,5.19,16.79,16.79,0,0,1,20.93,5.8c.69-3.25,4.31-8,8.64-9.58a11.31,11.31,0,0,1,12.42,3.56c3-3.82,7.62-6.07,12.7-4,4.26,1.73,7.49,8,7.55,11.52,5,0,10,6,9.56,11a10.57,10.57,0,0,1-3.14,6.84c.34,0,.68,0,1-.07,4.42-.67,9.72-3.46,10.83-7.78,5.83,3.21,12.22,1.54,17.08-3A15.91,15.91,0,0,0,387,390.17Z" transform="translate(-91.88 -209.93)" fill="#44ac3b" fill-rule="evenodd"/><path d="M406.1,415.77c-10.89-6.53-24.12-7.29-36.58-9.69-9.66-1.87-19.82-5.44-26.51-12.25l-2.82,1.31c.9,9.5-2.91,19.57-7.7,28.17-6.19,11.07-14.13,21.68-16.16,34.21a39.49,39.49,0,0,0,15.88,37.71c11.75,8.28,33.21,9.51,55.79-1s35.47-27.71,36.71-42a39.5,39.5,0,0,0-18.61-36.44Z" transform="translate(-91.88 -209.93)" fill="#9f1b5b" fill-rule="evenodd"/><path d="M348.24,462.8a9.74,9.74,0,1,1-12.93-4.72,9.75,9.75,0,0,1,12.93,4.72Z" transform="translate(-91.88 -209.93)" fill="#bf4580" fill-rule="evenodd"/><path d="M406.1,415.77c-10.89-6.53-24.12-7.29-36.58-9.69-9.66-1.87-19.82-5.44-26.51-12.25l-2.82,1.31c16.07,34.54,38.16,21.62,53.25,43.51,15.81,22.92,1.65,50.15-37.81,63.11,9.75.1,20.92-2.2,32.37-7.53,22.58-10.5,35.47-27.71,36.71-42a39.5,39.5,0,0,0-18.61-36.44Z" transform="translate(-91.88 -209.93)" fill="#641a48" fill-rule="evenodd"/><path d="M397.1,419.93a45.76,45.76,0,0,1,5.67,5.1,49.74,49.74,0,0,1,11.09,19.82,42.33,42.33,0,0,1,1.52,7.49,33.82,33.82,0,0,1,.1,7.66,37.3,37.3,0,0,1-4.75,14.5A46.21,46.21,0,0,1,401,486.26,55,55,0,0,1,373.5,499a45.83,45.83,0,0,1-15.28-.15,36.88,36.88,0,0,1-14.16-5.69,33.6,33.6,0,0,1-5.78-5,42.21,42.21,0,0,1-4.76-6,50.43,50.43,0,0,1-6.46-13.8,48.73,48.73,0,0,1-1.57-7.48,45.21,45.21,0,0,1-.25-7.63,51.74,51.74,0,0,1,3.39-14.83c1.78-4.78,4-9.35,6.08-14a69.07,69.07,0,0,0,4.9-14.35,41.33,41.33,0,0,0,.55-15l0-.24.22-.1,2.25-1.06.22-.1.16.19A41.44,41.44,0,0,0,354.83,403,68.47,68.47,0,0,0,369,408.56c4.88,1.43,9.82,2.66,14.62,4.38,1.19.43,2.39.88,3.56,1.38s2.33,1,3.46,1.61,2.25,1.2,3.33,1.87,2.13,1.39,3.16,2.13Zm0,.06c-1-.73-2.08-1.45-3.17-2.1a37.43,37.43,0,0,0-3.34-1.83c-1.13-.58-2.3-1.09-3.47-1.58s-2.36-.92-3.56-1.35c-4.8-1.66-9.75-2.85-14.65-4.23a70.45,70.45,0,0,1-14.28-5.42,42.08,42.08,0,0,1-12.11-9.31l.39.08-2.26,1.05.18-.34a41.85,41.85,0,0,1-.66,15.25,69.72,69.72,0,0,1-5,14.41c-2.1,4.64-4.37,9.17-6.18,13.92a50.21,50.21,0,0,0-3.46,14.74,43.63,43.63,0,0,0,.29,7.58,49.16,49.16,0,0,0,8.1,21.08,42.73,42.73,0,0,0,4.76,5.89,33.52,33.52,0,0,0,5.75,4.89,36.63,36.63,0,0,0,14,5.49,45.26,45.26,0,0,0,15.05.13,54.47,54.47,0,0,0,27.11-12.61,45.53,45.53,0,0,0,9.6-11.59,36.46,36.46,0,0,0,4.85-14.2,34.65,34.65,0,0,0,0-7.55,43.81,43.81,0,0,0-1.42-7.44,50.14,50.14,0,0,0-6.23-13.79,48.47,48.47,0,0,0-4.63-6,44.68,44.68,0,0,0-5.6-5.14Z" transform="translate(-91.88 -209.93)" fill="#cb93a4" fill-rule="evenodd"/><path d="M387.28,424.51a55.39,55.39,0,0,1,8.55,10.56A68.46,68.46,0,0,1,402,447.22a58.64,58.64,0,0,1,3.5,13.16A36,36,0,0,1,404.8,474a34.81,34.81,0,0,1-2.34,6.45,32,32,0,0,1-3.69,5.78,29.73,29.73,0,0,1-24.14,11.05,32.09,32.09,0,0,1-13.2-3.4,36.17,36.17,0,0,1-10.77-8.36,59.1,59.1,0,0,1-7.78-11.19,68.74,68.74,0,0,1-5.32-12.53,54.83,54.83,0,0,1-2.51-13.36,52.71,52.71,0,0,1,1.08-13.56c.9-4.46,2.25-8.8,3.38-13.18a62.62,62.62,0,0,0,2.17-13.35,47.65,47.65,0,0,0-1.21-13.42l-.06-.26.24-.11,1.63-.76.24-.12.16.22c.68.91,1.38,1.79,2.11,2.66s1.52,1.69,2.31,2.49a49.61,49.61,0,0,0,5.12,4.48,62.39,62.39,0,0,0,11.68,7c4.11,2,8.31,3.75,12.32,6a55.28,55.28,0,0,1,5.8,3.64c.93.65,1.83,1.36,2.71,2.1s1.72,1.5,2.55,2.27Zm0,.05c-.84-.77-1.68-1.53-2.57-2.24s-1.79-1.42-2.72-2.07a58.9,58.9,0,0,0-5.82-3.57c-4-2.16-8.23-3.91-12.37-5.84a62.89,62.89,0,0,1-11.84-6.9,50.34,50.34,0,0,1-5.21-4.47c-.82-.81-1.61-1.64-2.37-2.5s-1.48-1.76-2.17-2.67l.4.1-1.64.75.18-.36c2.09,8.93,1.28,18.3-1.16,27-1.18,4.39-2.56,8.71-3.49,13.13a51.37,51.37,0,0,0-1.18,13.48,54.78,54.78,0,0,0,2.59,13.29,68.36,68.36,0,0,0,5.38,12.43,58.37,58.37,0,0,0,7.82,11,35.73,35.73,0,0,0,10.66,8.13,31.32,31.32,0,0,0,12.93,3.32,29.1,29.1,0,0,0,23.57-10.82,31.18,31.18,0,0,0,3.6-5.66,35.12,35.12,0,0,0,3.1-19.68,58.31,58.31,0,0,0-3.31-13.12,68.5,68.5,0,0,0-6-12.16,56.05,56.05,0,0,0-8.42-10.62Z" transform="translate(-91.88 -209.93)" fill="#cb93a4" fill-rule="evenodd"/><path d="M376.89,429.34a100.69,100.69,0,0,1,12.31,20.84,104.87,104.87,0,0,1,4.36,11.32,59.49,59.49,0,0,1,2.59,11.89,32.94,32.94,0,0,1-.94,12.14,16.65,16.65,0,0,1-2.74,5.51,11.76,11.76,0,0,1-4.9,3.73,12.18,12.18,0,0,1-6.12.71,17.77,17.77,0,0,1-5.84-1.88,27.52,27.52,0,0,1-5.14-3.32,39.86,39.86,0,0,1-4.47-4.14,60.38,60.38,0,0,1-7.25-9.76A108.82,108.82,0,0,1,353,465.7a97.4,97.4,0,0,1-7.75-22.94A67.72,67.72,0,0,1,344,430.7c-.05-4.05.2-8.09.27-12.12a71.74,71.74,0,0,0-3.5-23.77l-.09-.27.26-.12,1-.46.25-.12.16.24c.56.87,1.1,1.74,1.69,2.59s1.17,1.7,1.79,2.52q1.84,2.47,3.9,4.79a73,73,0,0,0,9,8.51c3.22,2.6,6.55,5.07,9.65,7.82a67.3,67.3,0,0,1,8.51,9Zm-.06.05a66.44,66.44,0,0,0-8.59-8.92c-3.12-2.71-6.47-5.14-9.73-7.71a72,72,0,0,1-16.69-18.33l.41.12-1,.45.16-.39a72,72,0,0,1,3.33,24c-.1,4.05-.4,8.07-.38,12.1a64.82,64.82,0,0,0,1.09,12,81,81,0,0,0,3.24,11.64,113.09,113.09,0,0,0,4.66,11.15,107.57,107.57,0,0,0,5.85,10.57,60.78,60.78,0,0,0,7.28,9.6,39.44,39.44,0,0,0,4.4,4.07,27.82,27.82,0,0,0,5,3.24c3.49,1.81,7.73,2.64,11.4,1.13s6.12-5,7.22-8.8a28.49,28.49,0,0,0,1-5.88,42.93,42.93,0,0,0-.11-6,58.75,58.75,0,0,0-2.38-11.78,104.08,104.08,0,0,0-4.18-11.34,100.17,100.17,0,0,0-12-20.94Z" transform="translate(-91.88 -209.93)" fill="#cb93a4" fill-rule="evenodd"/><path d="M366.82,434c3.7,6.4,7,13,10.21,19.69s6.14,13.46,8.7,20.41a89.48,89.48,0,0,1,3.12,10.68,32.09,32.09,0,0,1,.76,5.55,7.94,7.94,0,0,1-.37,2.87,2.53,2.53,0,0,1-.36.69,1.78,1.78,0,0,1-.62.55,2,2,0,0,1-1.61.13,11.86,11.86,0,0,1-4.47-3.5,48.46,48.46,0,0,1-3.45-4.38,109.27,109.27,0,0,1-5.89-9.43c-3.58-6.48-6.81-13.14-9.86-19.88s-5.9-13.58-8.32-20.57c-1.21-3.49-2.34-7-3.34-10.57l-2.89-10.7a181.36,181.36,0,0,0-7.29-20.9l-.12-.27.27-.13.35-.17.28-.13.14.27c1.82,3.46,3.67,6.9,5.67,10.25s4.09,6.65,6.31,9.87,4.51,6.39,6.66,9.66,4.2,6.6,6.12,10Zm-.06,0c-2-3.38-4-6.7-6.23-9.92s-4.52-6.38-6.78-9.58-4.43-6.46-6.47-9.8-4-6.74-5.78-10.22l.41.14-.35.16.16-.41a179.83,179.83,0,0,1,7.12,21l2.78,10.74c1,3.56,2,7.1,3.26,10.58,2.48,7,5.39,13.76,8.48,20.47s6.43,13.31,10.05,19.73c1.82,3.21,3.75,6.36,5.87,9.36a49,49,0,0,0,3.41,4.32,11.36,11.36,0,0,0,4.15,3.28,1.31,1.31,0,0,0,1.75-.95,7.38,7.38,0,0,0,.32-2.6,30.48,30.48,0,0,0-.76-5.42,91.58,91.58,0,0,0-3.1-10.59c-2.43-7-5.31-13.77-8.35-20.5s-6.33-13.36-9.94-19.81Z" transform="translate(-91.88 -209.93)" fill="#cb93a4" fill-rule="evenodd"/><path d="M480.9,345.28c36.05,25,43.52,76.66,16.68,115.31s-77.82,49.7-113.86,24.67S340.2,408.61,367,370s77.82-49.69,113.86-24.67Z" transform="translate(-91.88 -209.93)" fill="#fee4c2" fill-rule="evenodd"/><path d="M480.9,345.28c36.05,25,43.52,76.66,16.68,115.31s-77.82,49.7-113.86,24.67S340.2,408.61,367,370s77.82-49.69,113.86-24.67Zm-54.24.12c34.85,0,63.1,31.09,63.1,69.45s-28.25,69.46-63.1,69.46-63.1-31.1-63.1-69.46,28.25-69.45,63.1-69.45Z" transform="translate(-91.88 -209.93)" fill="#d7b46a" fill-rule="evenodd"/><path d="M409.72,352.43s46.52-.52,75.06,46-75.06-46-75.06-46Z" transform="translate(-91.88 -209.93)" fill="#e7c5a6" fill-rule="evenodd"/><path d="M384.45,372.06s47.19,11.64,87.82,65.65-84.94-39.6-87.82-65.65Z" transform="translate(-91.88 -209.93)" fill="#e7c5a6" fill-rule="evenodd"/><path d="M449.58,481.57s-52-4.91-78.43-60.27,78.43,60.27,78.43,60.27Z" transform="translate(-91.88 -209.93)" fill="#e7c5a6" fill-rule="evenodd"/><path d="M595.42,288.91s-17.35,5.48-46.4,75c-1,2.31-2.24,7.64-2.72,9.41-.24.86,5.34,1.87,5.66,1,1.75-4.55,17-47.26,28.44-64.6,9.58-14.56,15-20.88,15-20.88Z" transform="translate(-91.88 -209.93)" fill="#008237" fill-rule="evenodd"/><path d="M578.18,313.07a53.33,53.33,0,0,0-4-24s2,5.8,2.67,17.91c.15,2.58-.68,5.33-.89,7.8.53-.56,1.76-1.15,2.23-1.74Z" transform="translate(-91.88 -209.93)" fill="#008237" fill-rule="evenodd"/><path d="M583.3,310.38a27.87,27.87,0,0,0-8.08,7c.09.6-3.24,5.63-3.09,6.25a109.57,109.57,0,0,1,7.11-8.58,62.15,62.15,0,0,1,4.85-4,7.35,7.35,0,0,1-.79-.67Z" transform="translate(-91.88 -209.93)" fill="#008237" fill-rule="evenodd"/><path d="M585.76,294c-1.24-1.34-2.71-.51-3.47.09,1.94-1.87,5.89-6.68,3.39-7-2.75-.34-5.12,5.58-5.12,5.58,1.42-3.18.12-6.15-.76-6.52s-1.4,1.3-1.6,5.1-1.37,4.71-1.37,4.71a11.46,11.46,0,0,1-.44-6.45c.77-3.76,3.15-9,1.14-9.4s-3.64,4.47-3.64,4.47c-.5-3.6-2.09-11-4.73-8.82-2.24,1.86,1,8.08,2,9.91a7.89,7.89,0,0,0-4.62-3.35c-3.61-1-3.66,2.86.16,3.79s7.25,9.29,7.25,9.29a4.89,4.89,0,0,1-2.79-1.69c-1.07-1.39-2.24-6.3-4.28-4.79s1.86,5.24,1.86,5.24-5.63-4-6.86-1.51c-.86,1.73,3.32,2.68,5.95,3.1-3.6,0-4.17,3-.71,2.26a10.69,10.69,0,0,1,3.41-.16,9.08,9.08,0,0,1,6.44,3.85h0a10.23,10.23,0,0,1,3.71-3.83c2.44-1.34,6.86-2,5.11-3.88Z" transform="translate(-91.88 -209.93)" fill="#2d9c37" fill-rule="evenodd"/><path d="M582.21,299.28c.83-.06,2.06,2.23,2,3.19.42-2.66,2.14-7.22,3.87-5.38,1.89,2-1.62,7.39-1.62,7.39,1.8-3,5-3.71,5.85-3.21s-.26,1.88-3.3,4.28-3.19,4.24-3.19,4.24a15.39,15.39,0,0,0,5.7-3.81c2.67-2.83,5.58-7.79,7.13-6.43s-1.57,5.55-1.57,5.55c3.27-1.71,10.35-4.78,10.08-1.37-.22,2.89-7.26,4-9.37,4.23a8,8,0,0,1,5.48,1.75c2.93,2.33-.23,4.62-3.24,2.1s-11.95-.39-11.95-.39a4.92,4.92,0,0,0,3,1.26c1.79,0,6.54-1.9,6.48.63s-5.44,1.57-5.44,1.57,6.63,2.18,5.28,4.64c-.93,1.71-4.17-1.1-6.06-3,2.1,2.9-.06,5.13-1.46,1.89a10.37,10.37,0,0,0-1.86-2.83,9.88,9.88,0,0,0-7.24-3h0a8.69,8.69,0,0,0,1.26-5.16c-.32-2.74-2.41-8,.13-8.17Z" transform="translate(-91.88 -209.93)" fill="#2d9c37" fill-rule="evenodd"/><path d="M601.83,298.35c.32-1.6-1.57-2.25-2.71-2.5,3.22.46,10.69.88,9.08-1.12-1.76-2.19-9.07-.88-9.07-.88,4-.6,5.82-3.08,5.5-3.92s-2.27-.36-6,1.46-5.9,1.38-5.9,1.38a15.8,15.8,0,0,1,6.15-3.61c4.09-1.38,10.73-2.31,9.63-4s-6.92-.37-6.92-.37c3-2.22,8.68-7.21,4.64-8-3.43-.69-6.81,4.87-7.74,6.55a5.46,5.46,0,0,0-.38-5.11c-1.82-3.15-5.43-1.21-3.41,2.07s-3.18,10.12-3.18,10.12a3.63,3.63,0,0,1-.53-2.93c.49-1.5,4.18-4.89,1.22-5.61s-3.47,4.08-3.47,4.08-.52-6.21-3.78-5.83c-2.26.27,0,3.82,1.61,6-2.73-2.63-6-1.5-2.64.65a12,12,0,0,1,2.72,2.41,6.57,6.57,0,0,1,1.28,6.72h0a16.54,16.54,0,0,1,6.37.75c3.1,1.1,7,4,7.48,1.75Z" transform="translate(-91.88 -209.93)" fill="#2d9c37" fill-rule="evenodd"/><path d="M549.34,302.68s8.08,16-.63,69.27a18.52,18.52,0,0,1-.86,3.7c-.22.75-6.21-1-6.06-1.78.83-4.27,5.89-26,7.39-48.39,1.07-15.8.16-22.8.16-22.8Z" transform="translate(-91.88 -209.93)" fill="#008237" fill-rule="evenodd"/><path d="M550.87,334.47a36.28,36.28,0,0,1,12.6-16.72s-3.55,3.62-8.3,12.78A84.18,84.18,0,0,0,551.8,339c-.22-.69-.76-3.86-.93-4.55Z" transform="translate(-91.88 -209.93)" fill="#008237" fill-rule="evenodd"/><path d="M544.11,330.06a23.22,23.22,0,0,1,6.24,9.14c-.21.46.39,5.8.13,6.25-.55-1.58-3.21-10.25-7.56-14.31.28-.06.94-1,1.19-1.08Z" transform="translate(-91.88 -209.93)" fill="#008237" fill-rule="evenodd"/><path d="M552.78,315.63c1.47-.4,2.27,1,2.61,1.83-.74-2.41-1.86-8.08.17-7,2.23,1.14,1.71,6.84,1.71,6.84.16-3.13,2.32-4.74,3.14-4.58s.56,1.7-.78,4.7-.81,4.28-.81,4.28a8.93,8.93,0,0,0,2.87-4.69c.89-3.26,1.12-8.43,2.83-7.75s1,5.26,1,5.26c1.8-2.49,5.92-7.34,7.07-4.34,1,2.56-3.9,5.68-5.39,6.56a6.25,6.25,0,0,1,4.84-.21c3.13,1.09,1.66,4-1.62,2.81s-9.18,3.41-9.18,3.41a4.05,4.05,0,0,0,2.8.13c1.36-.53,4.18-3.68,5.14-1.49s-3.48,3.05-3.48,3.05,5.87-.21,5.83,2.32c0,1.76-3.59.37-5.76-.64,2.74,1.83,2,4.41-.35,2.07a10.71,10.71,0,0,0-2.53-1.84,7.33,7.33,0,0,0-6.42-.32h0a10.56,10.56,0,0,0-1.33-4.8c-1.33-2.26-4.45-5-2.37-5.55Z" transform="translate(-91.88 -209.93)" fill="#2d9c37" fill-rule="evenodd"/><path d="M547.48,321.24c-.68-.37-2.21,1.05-2.37,1.88.24-2.38-.19-6.85-2-6-2,.94-.29,6.78-.29,6.78-.83-3.2-3.36-5-4.16-5s-.2,1.68,1.79,4.85,1.73,4.78,1.73,4.78a17.85,17.85,0,0,1-3.9-5.39c-1.61-3.4-2.93-8.67-4.52-8.14s.08,5.24.08,5.24c-2.35-2.7-7.56-8-8.1-5.07-.45,2.5,5.17,6.14,6.87,7.17a6.87,6.87,0,0,0-5-.67c-3,.8-.84,3.93,2.23,3s10,4.34,10,4.34a3.91,3.91,0,0,1-2.81-.14c-1.5-.66-5-4.13-5.54-2s4.19,3.42,4.19,3.42-6-.77-5.43,1.81c.4,1.78,3.72.71,5.7-.11-2.38,1.6-1.08,4.29.8,2.14a6.74,6.74,0,0,1,2.18-1.63,7.89,7.89,0,0,1,6.69.32h0a8.3,8.3,0,0,1,.1-4.79c.87-2.17,3.78-5.73,1.7-6.86Z" transform="translate(-91.88 -209.93)" fill="#2d9c37" fill-rule="evenodd"/><path d="M540.34,306c.5-1.34,2.18-.77,3.12-.33-2.55-1.43-8.16-5.23-6.08-5.8,2.29-.62,7,4.35,7,4.35-2.65-2.65-2.8-5.44-2.18-5.87s1.81,1,3.65,4.34,3.64,4.25,3.64,4.25a16.1,16.1,0,0,0-2.8-6c-2.33-3.25-6.72-7.58-5.13-8.21s5.19,3.54,5.19,3.54c-1.14-3.24-3-10,.32-8.37,2.81,1.39,2.7,7.28,2.6,9a4.46,4.46,0,0,1,2.64-3.51c2.77-1.28,4.49,2.11,1.51,3.38s-2.35,9.09-2.35,9.09a2.78,2.78,0,0,0,1.73-1.82c.34-1.37-.78-5.86,1.7-4.75s.64,4.86.64,4.86S558.77,300,561,302c1.52,1.44-1.77,2.77-3.92,3.44,3.19-.4,5,2.2,1.62,1.92a9.75,9.75,0,0,0-3.09.26,5.23,5.23,0,0,0-4,4.17h0a15.39,15.39,0,0,0-5-3c-2.75-.91-7-.95-6.23-2.85Z" transform="translate(-91.88 -209.93)" fill="#2d9c37" fill-rule="evenodd"/><path d="M598.33,334.63s-16.12,1.94-46.32,35.12c-1.25,1.37-.28,2.34-1,3.44-.37.54,2.65,2.52,3.07,2,2.35-2.74,16-19.29,28.6-28.81,10.6-8,15.69-11.77,15.69-11.77Z" transform="translate(-91.88 -209.93)" fill="#008237" fill-rule="evenodd"/><path d="M576.45,350a28.48,28.48,0,0,0,3.85-16.94s-.36,4.21-3.7,12.07a68.32,68.32,0,0,1-3.68,6.6c.58-.21,3-1.49,3.53-1.73Z" transform="translate(-91.88 -209.93)" fill="#008237" fill-rule="evenodd"/><path d="M583.23,352.18a20.9,20.9,0,0,0-9.6.59c-.19.37-4.06,2.73-4.21,3.13,1.36-.45,8.61-3.16,13.78-2.37-.12-.22.1-1.13,0-1.35Z" transform="translate(-91.88 -209.93)" fill="#008237" fill-rule="evenodd"/><path d="M587.8,339c-.57-1.18-1.94-1-2.69-.78,2-.75,6.4-2.93,4.56-3.74-2-.89-5.5,2.39-5.5,2.39,2-1.72,1.81-4,1.23-4.43s-1.44.51-2.65,2.94-2.37,2.74-2.37,2.74a7,7,0,0,1,1.46-4.32c1.64-2.26,4.93-5.07,3.5-5.85s-4.05,2-4.05,2c.62-2.47,1.47-7.69-1.18-6.9-2.24.66-1.52,5.5-1.25,6.94a5.53,5.53,0,0,0-2.62-3.3c-2.5-1.51-3.61,1-.93,2.51s3,7.82,3,7.82a3.69,3.69,0,0,1-1.68-1.78c-.44-1.18,0-4.66-2-4.17s0,3.88,0,3.88-3.21-4-4.86-2.66c-1.14.92,1.81,2.56,3.72,3.47-2.78-.87-4.06,1-1.18,1.3a10,10,0,0,1,2.67.72,6.73,6.73,0,0,1,3.88,4.08h0a8.94,8.94,0,0,1,3.93-1.6c2.25-.28,5.83.38,5-1.29Z" transform="translate(-91.88 -209.93)" fill="#2d9c37" fill-rule="evenodd"/><path d="M587.13,345.42c.63.25.56,2,.11,2.53,1.44-1.39,4.63-3.41,5.12-1.75.53,1.82-4.32,3.69-4.32,3.69,2.59-1.1,5.25-.38,5.65.2s-1,1-4.23,1.31-4.14,1.32-4.14,1.32a16.17,16.17,0,0,0,5.79-.2c3.16-.69,7.4-2.53,7.95-1.2s-3.5,2.64-3.5,2.64c3.13.16,9.61.87,8,2.74-1.39,1.58-7-.26-8.66-.85a6.36,6.36,0,0,1,3.28,2.93c1.15,2.36-2.12,2.58-3.26.07s-8.6-4.4-8.6-4.4a3.53,3.53,0,0,0,1.69,1.79c1.3.65,5.6,1.19,4.48,2.63s-4.65-1-4.65-1,3.94,3.57,1.91,4.51c-1.41.66-2.59-2.08-3.18-3.82.3,2.4-2.23,2.93-1.88.58a5.65,5.65,0,0,0-.16-2.29,7.27,7.27,0,0,0-4-4.25h0a6.74,6.74,0,0,0,3.11-2.53c.93-1.69,1.63-5.45,3.56-4.65Z" transform="translate(-91.88 -209.93)" fill="#2d9c37" fill-rule="evenodd"/><path d="M601.27,342.29c.6-1-.73-1.84-1.57-2.23,2.41.94,8.13,2.69,7.31,1-.9-1.83-6.86-2.37-6.86-2.37,3.26.38,5.18-.95,5.12-1.59s-1.69-.68-4.95-.18a9.45,9.45,0,0,1-4.89-.21,13.91,13.91,0,0,1,5.56-1.24c3.48-.14,8.85.54,8.36-.84S604,333,604,333c2.8-.92,8.32-3.18,5.35-4.52-2.52-1.14-6.35,2-7.44,2.92a3.47,3.47,0,0,0,.81-3.54c-.73-2.49-4-1.88-3.1.74s-4.66,6.24-4.66,6.24a2.29,2.29,0,0,1,.22-2.09c.71-.93,4.31-2.5,2.16-3.57s-3.58,2.08-3.58,2.08.94-4.31-1.68-4.69c-1.82-.26-.82,2.6,0,4.37-1.55-2.32-4.32-2.19-2.19-.08a8.63,8.63,0,0,1,1.6,2.17,4.17,4.17,0,0,1-.46,4.81h0a14.61,14.61,0,0,1,4.8,1.76c2.17,1.35,4.6,4.1,5.44,2.65Z" transform="translate(-91.88 -209.93)" fill="#2d9c37" fill-rule="evenodd"/><path d="M513.23,385.09c-9.55,17.21-14.75,35.59-19.51,54.61-4.65,18.63-10,52.32-3.8,55.15,6.52,3,35.09-25.35,38.42-29.6,11.51-14.71,28-37.41,36-56.74,5.49-13.2,5.44-29.29-13.71-38.26-16.26-7.63-30.09,1.59-37.44,14.84Z" transform="translate(-91.88 -209.93)" fill="#eb6b0c" fill-rule="evenodd"/><path d="M550.67,370.25a26.42,26.42,0,0,0-14.13-2.62c18,11.24,18.73,19.58,6.06,50.7-7.73,19-49.9,82.24-55.46,67.3.15,4.93,1,8.4,2.78,9.22,6.52,3,35.09-25.35,38.42-29.6,11.51-14.71,28-37.41,36-56.74,5.49-13.2,5.44-29.29-13.71-38.26Z" transform="translate(-91.88 -209.93)" fill="#da6113" fill-rule="evenodd"/><path d="M535.82,380.54c-12.44-7.21-22.49,10.8-10.48,17.47,10.85,6,22.83-10.32,10.48-17.47Z" transform="translate(-91.88 -209.93)" fill="#f28d22" fill-rule="evenodd"/><path d="M522.85,382c2.41,1.63,4.83,3.25,7.32,4.77,1.25.76,2.5,1.52,3.79,2.23s2.57,1.39,3.87,2.07c-4.43-3.69-8.76-7.35-13.06-11.05L520.06,376c-.78.78-1.52,1.59-2.23,2.44,1.66,1.21,3.32,2.43,5,3.6Z" transform="translate(-91.88 -209.93)" fill="#da6113" fill-rule="evenodd"/><path d="M555.23,410.65c2.41.76,4.84,1.4,7.3,2,.51-1.09,1-2.17,1.44-3.24l-1.06-.16c-2.41-.35-4.84-.82-7.28-1.25-4.88-.87-9.79-1.86-14.76-2.56,4.73,1.93,9.49,3.69,14.36,5.19Z" transform="translate(-91.88 -209.93)" fill="#ca5a16" fill-rule="evenodd"/><path d="M544.9,430.87c-5.21-.94-10.45-2-15.76-2.91a151.58,151.58,0,0,0,15.33,5.66c1.81.54,3.63,1,5.46,1.51.65-1,1.29-2,1.93-3.07-2.31-.38-4.63-.76-7-1.19Z" transform="translate(-91.88 -209.93)" fill="#ca5a16" fill-rule="evenodd"/><path d="M506.94,398.36c2,1.57,4,3.14,6.14,4.63s4.22,2.94,6.41,4.3c1.1.69,2.21,1.36,3.34,2s2.28,1.22,3.42,1.83c-3.86-3.32-7.57-6.62-11.25-10-1.82-1.7-3.68-3.35-5.47-5.06l-1.21-1.14c-.51,1.1-1,2.19-1.51,3.3l.13.12Z" transform="translate(-91.88 -209.93)" fill="#da6113" fill-rule="evenodd"/><path d="M533.37,452.91c-2.9-.5-5.8-1.11-8.71-1.73s-5.82-1.32-8.77-2a80.29,80.29,0,0,0,8.38,3.72c2.85,1.12,5.77,2.05,8.7,2.92.72.2,1.44.39,2.17.57l2.07-2.79c-1.28-.2-2.56-.4-3.84-.65Z" transform="translate(-91.88 -209.93)" fill="#ca5a16" fill-rule="evenodd"/><path d="M502.08,425.61c2.24,1.54,4.49,3,6.87,4.35a73.44,73.44,0,0,0,7.26,3.64c-2.13-1.62-4.24-3.23-6.27-4.86s-4-3.32-5.94-5c-1.62-1.48-3.21-3-4.72-4.49-.34,1.15-.67,2.31-1,3.47,1.24,1,2.5,2,3.81,2.91Z" transform="translate(-91.88 -209.93)" fill="#da6113" fill-rule="evenodd"/><path d="M492.45,449.77c1.63.94,3.3,1.81,5,2.66s3.42,1.61,5.12,2.39,3.46,1.39,5.21,2l-2.29-1.56c-.77-.51-1.57-1-2.31-1.53-1.51-1-3-2-4.49-3.07s-3-2.06-4.39-3.13c-.7-.48-1.38-1-2-1.49-.22,1-.45,2.09-.67,3.16l.89.53Z" transform="translate(-91.88 -209.93)" fill="#da6113" fill-rule="evenodd"/><path d="M489.19,475.4l-1.53-1.23c-.09.94-.18,1.86-.25,2.77,3.11,1.65,6.28,3.2,9.52,4.57l-7.74-6.11Z" transform="translate(-91.88 -209.93)" fill="#da6113" fill-rule="evenodd"/><path d="M511.73,472.72c-2.73-.69-5.47-1.37-8.24-2,2.59,1.34,5.23,2.58,7.9,3.71,1.87.82,3.76,1.56,5.66,2.28l2.22-2.1-7.54-1.87Z" transform="translate(-91.88 -209.93)" fill="#ca5a16" fill-rule="evenodd"/><path d="M243.33,390.17c2.07-2.54,36.53-33.2,57.07,32.33,16.47,52.55,19,89.05,37.55,106.85,9.72,9.32,20.91,13,53.64,12.63,54.08-.63,126.45-4,137,16,14.64,27.68-35,33.62-117.26,29.38-102.31-5.28-76.81-9-76.81-9s117.38,5,161.7-4c9.91-2,36-11.34.17-14-8.69-.64-19.49.52-36.77.52-88.49,0-139.7,11.9-155.19-45.82s-25.18-135.92-53.91-121.52c-18.62,9.32-9-1.1-7.21-3.34Zm221.5,208a26.28,26.28,0,1,1-26.27,26.28,26.29,26.29,0,0,1,26.27-26.28Zm-91.63-1.35a26.28,26.28,0,1,1-26.28,26.28,26.28,26.28,0,0,1,26.28-26.28Zm18.13-204.6c15.76-1.87,112.74-3.95,151.24-3.07,17.63.41,27.86-1.61,29.59,5.61,2,8.2-4.33,26.16-14.65,47.17-31.82,64.77-17.52,64-120.83,61.54S320.79,501.87,326,498.5s129-3.17,159.68-5.39,35.48-2.25,50.53-42c-58.62-.45-120.21,3-142.61,2.92s-71.79-9.23-1.8-13.93c45.36-3,116.12.21,147.08-1.14,3.31-.15,9.13-17.3,12.6-31.2-65.7,1.31-122,.43-149.8-.89-90.28-4.3-39-11.29-10.31-14.68Z" transform="translate(-91.88 -209.93)" fill="#246822" fill-rule="evenodd"/><path d="M369.54,227.25h21a2.78,2.78,0,0,1,2.77,2.77v9.58a2.78,2.78,0,0,1-2.77,2.77h-21a2.78,2.78,0,0,1-2.77-2.77V230a2.78,2.78,0,0,1,2.77-2.77Z" transform="translate(-91.88 -209.93)" fill="#9d9d9c" fill-rule="evenodd"/><polygon points="278.36 32.44 287.22 32.44 287.22 17.32 278.36 17.32 278.36 32.44 278.36 32.44" fill="#b2b2b2" fill-rule="evenodd"/><path d="M941.84,698.44l-18.05,18.29-5-5.05,18.89-19.13-4.15-4.09L924,698.13l-5.3-5.38,9.8-9.93-4.15-4.1-9.54,9.67-9.54-9.67-4.15,4.1,9.81,9.93-5.31,5.38-9.55-9.67-4.15,4.09,18.89,19.13-5,5.05-18.06-18.29h-.39l-18,18.29-5-5.05,18.88-19.13-4.15-4.09-9.55,9.67-5.3-5.38,9.81-9.93-4.15-4.1-9.54,9.67-9.55-9.67-4.15,4.1,9.81,9.93-5.3,5.38-9.55-9.67-4.15,4.09,18.88,19.13-5,5.05-18.06-18.29h-.39l-18.06,18.29-5-5.05,18.89-19.13-4.15-4.09-9.55,9.67-5.31-5.38,9.81-9.93-4.15-4.1-9.54,9.67-9.54-9.67-4.15,4.1,9.8,9.93-5.3,5.38-9.55-9.67L783,692.55l18.89,19.13-5,5.05-18-18.29h-.39l-18.06,18.29-5-5.05,18.88-19.13-4.15-4.09-9.54,9.67-5.31-5.38,9.81-9.93-4.15-4.1-9.54,9.67-9.55-9.67-4.15,4.1,9.81,9.93-5.3,5.38-9.55-9.67-4.15,4.09,18.88,19.13-5,5.05-18-18.29H724L705.9,716.73l-5-5.05,18.89-19.13-4.15-4.09-9.55,9.67-5.31-5.38,9.81-9.93-4.15-4.1-9.54,9.67-9.54-9.67-4.15,4.1,9.81,9.93-5.31,5.38-9.55-9.67L674,692.55l18.89,19.13-5,5.05-18.06-18.29h-.39l-18.05,18.29-5-5.05,18.88-19.13-4.15-4.09-9.55,9.67-5.3-5.38,9.81-9.93-4.15-4.1-9.55,9.67-9.54-9.67-4.15,4.1,9.81,9.93-5.31,5.38-9.54-9.67-4.15,4.09,18.88,19.13-5,5.05-18.05-18.29H615L597,716.73l-5-5.05,18.89-19.13-4.16-4.09-9.54,9.67-5.31-5.38,9.81-9.93-4.15-4.1L588,688.39l-9.54-9.67-4.15,4.1,9.8,9.93-5.3,5.38-9.55-9.67-4.15,4.09L584,711.68l-5,5.05-18.05-18.29h-.32l-18.06,18.28-5-5,18.88-19.13-4.15-4.1-9.54,9.67-5.31-5.37,9.81-9.93-4.15-4.1-9.54,9.66L524,678.73l-4.15,4.1,9.8,9.93-5.3,5.37-9.55-9.67-4.15,4.1,18.88,19.13-5,5-18.05-18.28h-.4l-18.05,18.28-5-5L502,692.56l-4.15-4.1-9.55,9.67-5.3-5.37,9.8-9.93-4.15-4.1-9.54,9.66-9.54-9.66-4.15,4.1,9.81,9.93-5.31,5.37-9.55-9.67-4.15,4.1,18.89,19.13-5,5-18.06-18.28h-.39l-18.05,18.28-5-5,18.88-19.13-4.15-4.1-9.55,9.67-5.3-5.37,9.81-9.93-4.15-4.1-9.54,9.66-9.55-9.66-4.15,4.1,9.81,9.93-5.3,5.37-9.55-9.67-4.15,4.1,18.88,19.13-5,5-18.05-18.28h-.4l-18.05,18.28-5-5L393,692.56l-4.15-4.1-9.55,9.67L374,692.76l9.81-9.93-4.15-4.1-9.54,9.66-9.54-9.66-4.15,4.1,9.8,9.93-5.3,5.37-9.55-9.67-4.15,4.1,18.89,19.13-5,5-18.06-18.28h-.39l-18.06,18.28-5-5,18.88-19.13-4.15-4.1-9.54,9.67-5.31-5.37,9.81-9.93-4.15-4.1-9.54,9.66-9.55-9.66-4.14,4.1,9.8,9.93-5.3,5.37-9.55-9.67-4.15,4.1,18.88,19.13-5,5-18.05-18.28h-.4l-18.05,18.28-5-5,18.89-19.13-4.15-4.1-9.55,9.67-5.31-5.37,9.81-9.93-4.15-4.1-9.54,9.66-9.54-9.66-4.15,4.1,9.8,9.93-5.3,5.37-9.55-9.67-4.15,4.1,18.89,19.13-5,5-18.05-18.28h-.39l-18.05,18.28-5-5,18.88-19.13-4.15-4.1-9.55,9.67-5.3-5.37,9.81-9.93-4.15-4.1-9.55,9.66-9.54-9.66-4.15,4.1,9.81,9.93-5.3,5.37L188,688.46l-4.15,4.1,18.88,19.13-5,5-18.06-18.28h-.39l-18.06,18.28-5-5,18.89-19.13-4.16-4.1-9.54,9.67-5.31-5.37,9.81-9.93-4.15-4.1-9.54,9.66-9.54-9.66-4.15,4.1,9.8,9.93-5.3,5.37-9.55-9.67-4.15,4.1,18.89,19.13-5,5-18.05-18.28H125l0,8.1,4.69,4.75L125,716.08v9.09l4.5-4.51,4.71-4.81,9,9.14.07,0c3-3,5.9-5.9,9-8.86,3.06,3,6,5.83,9,8.86l.07,0,9-9.14,4.71,4.81,4.49,4.5,4.48-4.5,4.71-4.81,9,9.14.07,0c3-3,5.91-5.9,9-8.86,3.06,3,6,5.83,9,8.86l.07,0,9-9.14,4.71,4.81,4.46,4.47v0l0,0,0,0v0l4.45-4.47,4.71-4.81,9,9.14.07,0c3-3,5.9-5.9,9-8.86,3.06,3,6,5.83,9,8.86l.07,0,9-9.14,4.71,4.81,4.48,4.5,4.48-4.5,4.71-4.81,9,9.14.07,0c3-3,5.9-5.9,9-8.86,3.06,3,6,5.83,9,8.86l.07,0,9-9.14,4.71,4.81,4.47,4.48v0h0v0l4.46-4.48,4.71-4.81,9,9.14.07,0c3-3,5.9-5.9,9-8.86,3.06,3,6,5.83,9,8.86l.07,0,9-9.14,4.71,4.81,4.48,4.5,4.48-4.5,4.71-4.81,9,9.14.08,0c3-3,5.9-5.9,9-8.86,3.05,3,6,5.83,9,8.86l.07,0,9-9.14,4.71,4.81,4.46,4.47v0l0,0,0,0v0l4.46-4.47,4.71-4.81,9,9.14.07,0c3-3,5.9-5.9,9-8.86,3.06,3,6,5.83,9,8.86l.07,0,9-9.14,4.71,4.81,4.48,4.5,4.48-4.5,4.71-4.81,9,9.14.07,0c3-3,5.9-5.9,9-8.86,3.06,3,6,5.83,9,8.86l.07,0,9-9.14,4.71,4.81,4.39,4.41v.1l0,0,.06,0v-.11l4.39-4.41,4.71-4.8,9,9.13.07,0c3-3,5.9-5.89,9-8.86,3.06,3,6,5.83,9,8.86l.07,0,9-9.13,4.71,4.8,4.49,4.5,4.48-4.5,4.71-4.8,9,9.13.06,0c3-3,5.9-5.89,9-8.86,3.06,3,6,5.83,9,8.86l.06,0,9-9.13,4.71,4.8,4.46,4.47v0l0,0,0,0v0l4.46-4.47,4.7-4.8,9,9.13.07,0c3-3,5.9-5.89,9-8.86,3.06,3,6,5.83,9,8.86l.07,0,9-9.13,4.71,4.8,4.48,4.5,4.48-4.5,4.71-4.8,9,9.13.06,0c3-3,5.91-5.89,9-8.86,3.06,3,6,5.83,9,8.86l.07,0,9-9.13,4.71,4.8,4.47,4.48v0l0,0v0l4.46-4.48,4.71-4.8,9,9.13.07,0c3-3,5.9-5.89,9-8.86,3.06,3,6,5.83,9,8.86l.07,0,9-9.13,4.72,4.8,4.48,4.5,4.48-4.5,4.71-4.8,9,9.13.06,0c3-3,5.91-5.89,9-8.86,3,3,6,5.83,9,8.86l.07,0,9-9.13,4.71,4.8,4.46,4.47v0l0,0,0,0v0l4.46-4.47,4.7-4.8,9,9.13.07,0c3-3,5.9-5.89,9-8.86,3.06,3,6,5.83,9,8.86l.07,0,9-9.13,4.71,4.8,4.48,4.5,4.48-4.5,4.71-4.8,9,9.13.07,0c3-3,5.9-5.89,9-8.86,3.06,3,6,5.83,9,8.86l.07,0,9-9.13,4.71,4.8,4.42,4.43,4.41-4.42,4.71-4.81,9,9.14.07,0c3-3,5.9-5.9,9-8.86,3.06,3,6,5.83,9,8.86l.07,0,9-9.14,4.71,4.81,4.48,4.5,4.48-4.5,4.71-4.81,9,9.14.07,0c3-3,5.9-5.9,9-8.86,3.06,3,6,5.83,9,8.86l.07,0,9-9.14,4.71,4.81,4.46,4.47v0l0,0,0,0v0l4.46-4.47,4.71-4.81,9,9.14.07,0c3-3,5.9-5.9,9-8.86,3.06,3,6,5.83,9,8.86l.07,0,9-9.14,4.71,4.81,4.48,4.5,4.48-4.5,4.71-4.81,9,9.14.07,0c3-3,5.9-5.9,9-8.86,3.06,3,6,5.83,9,8.86l.07,0,9-9.14,4.71,4.81,4.46,4.48v0h0v0l4.47-4.48,4.71-4.81,9,9.14.07,0c3-3,5.9-5.9,9-8.86,3.06,3,6,5.83,9,8.86l.07,0,9-9.14,4.71,4.81,4.48,4.5,4.48-4.5,4.71-4.81,9,9.14.07,0c3-3,5.9-5.9,9-8.86,3.06,3,6,5.83,9,8.86l.07,0,9-9.14,4.71,4.81,4.46,4.47v0l0,0,0,0v0l4.46-4.47,4.71-4.81,9,9.14.06,0c3-3,5.91-5.9,9-8.86,3.06,3,6,5.83,9,8.86l.06,0,9-9.14,4.71,4.81,4.48,4.5,4.49-4.5,4.71-4.81,9,9.14.07,0c3-3,5.9-5.9,9-8.86,3.06,3,6,5.83,9,8.86l.07,0,9-9.14,4.71,4.81,4.39,4.41v.1l0,0,.06,0v-.11l4.39-4.41,4.71-4.8,9,9.13.07,0c3-3,5.9-5.89,9-8.86,3.06,3,6,5.83,9,8.86l.07,0,9-9.13,4.71,4.8,4.48,4.5,4.48-4.5,4.71-4.8,9,9.13.07,0c3-3,5.9-5.89,9-8.86,3,3,6,5.83,9,8.86l.07,0,9-9.13,4.72,4.8,4.45,4.47v0l0,0v0l4.45-4.47,4.72-4.8,9,9.13.07,0c3-3,5.91-5.89,9-8.86,3.06,3,6,5.83,9,8.86l.07,0,9-9.13,4.71,4.8,4.3,4.31v-9.09l-4.51-4.58,4.51-4.56v-8.29h0l-18.06,18.29-5-5.05,18.88-19.13-4.15-4.09-9.54,9.67-5.31-5.38,9.8-9.93-4.15-4.1-9.54,9.67-9.54-9.67-4.15,4.1,9.81,9.93-5.3,5.38-9.55-9.67-4.15,4.09,18.89,19.13-5,5.05-18-18.29h-.39l-18.06,18.29-5-5.05,18.87-19.13-4.15-4.09-9.54,9.67-5.31-5.38,9.81-9.93-4.15-4.1-9.54,9.67-9.54-9.67-4.15,4.1,9.8,9.93-5.29,5.38-9.56-9.67-4.15,4.09,18.89,19.13-5,5.05-18-18.29h-.4l-18,18.29-5-5.05,18.89-19.13-4.15-4.09-9.55,9.67-5.3-5.38,9.8-9.93-4.15-4.1-9.54,9.67-9.54-9.67-4.15,4.1,9.81,9.93-5.31,5.38-9.55-9.67-4.14,4.09,18.88,19.13-5,5.05-18.06-18.29H1432l-18,18.28-5-5,18.89-19.13-4.15-4.1-9.55,9.67-5.3-5.37,9.8-9.93-4.15-4.1-9.54,9.66-9.54-9.66-4.15,4.1,9.81,9.93-5.31,5.37-9.55-9.67-4.15,4.1,18.89,19.13-5,5-18.06-18.28h-.39l-18.06,18.28-5-5,18.88-19.13-4.15-4.1-9.55,9.67-5.3-5.37,9.81-9.93-4.15-4.1-9.55,9.66-9.54-9.66-4.15,4.1,9.81,9.93-5.3,5.37-9.55-9.67-4.15,4.1,18.88,19.13-5,5-18.06-18.28H1323L1305,716.73l-5-5,18.89-19.13-4.15-4.1-9.55,9.67-5.31-5.37,9.81-9.93-4.15-4.1-9.54,9.66-9.54-9.66-4.15,4.1,9.8,9.93-5.3,5.37-9.55-9.67-4.15,4.1L1292,711.69l-5,5-18.06-18.28h-.4l-18,18.28-5-5,18.88-19.13-4.15-4.1-9.55,9.67-5.3-5.37,9.81-9.93-4.16-4.1-9.54,9.66-9.54-9.66-4.15,4.1,9.81,9.93-5.31,5.37-9.54-9.67-4.15,4.1,18.88,19.13-5,5-18.06-18.28h-.39l-18,18.28-5-5,18.89-19.13-4.15-4.1-9.55,9.67-5.31-5.37,9.81-9.93-4.15-4.1-9.54,9.66-9.54-9.66-4.15,4.1,9.81,9.93-5.31,5.37-9.55-9.67-4.15,4.1L1183,711.69l-5,5-18-18.28h-.4l-18,18.28-5-5,18.88-19.13-4.15-4.1-9.55,9.67-5.3-5.37,9.81-9.93-4.15-4.1-9.55,9.66-9.54-9.66-4.15,4.1,9.81,9.93-5.31,5.37-9.54-9.67-4.15,4.1,18.88,19.13-5,5-18-18.28h-.39l-18.06,18.28-5-5L1101,692.56l-4.14-4.1-9.55,9.67-5.31-5.37,9.81-9.93-4.15-4.1-9.54,9.66-9.54-9.66-4.15,4.1,9.8,9.93-5.3,5.37-9.55-9.67-4.15,4.1,18.89,19.13-5,5-18-18.28h-.4l-18.05,18.28-5-5,18.89-19.13-4.15-4.1-9.55,9.67-5.3-5.37,9.8-9.93-4.15-4.1-9.54,9.66-9.54-9.66-4.15,4.1,9.81,9.93-5.31,5.37-9.54-9.67-4.15,4.1,18.88,19.13-5,5-18.06-18.28h-.25l-18.06,18.29-5-5.05,18.88-19.13L988,688.46l-9.54,9.67-5.31-5.38,9.81-9.93-4.15-4.1-9.54,9.67-9.55-9.67-4.14,4.1,9.8,9.93-5.3,5.38-9.55-9.67-4.15,4.09,18.88,19.13-5,5.05-18-18.29ZM996.45,716l-4.62-4.7,4.61-4.67,4.62,4.68L996.45,716Zm435.68-9.41,4.64,4.71-4.65,4.73-4.65-4.72,4.66-4.72Zm-217.86,0,4.68,4.75-4.68,4.76-4.69-4.76,4.69-4.75Zm-109,0,4.68,4.74-4.68,4.76-4.68-4.76,4.68-4.74Zm-54.47,9.5-4.69-4.76,4.69-4.75,4.69,4.75-4.69,4.76Zm27.24-18.93,5.09,5.15-5.09,5-5.09-5,5.09-5.15Zm-54.48,0,5.09,5.15-5.09,5-5.09-5,5.09-5.15Zm136.18,18.93-4.69-4.76,4.69-4.75,4.69,4.75-4.69,4.76ZM1187,697.13l5.09,5.15-5.09,5-5.09-5,5.09-5.15Zm-54.48,0,5.09,5.15-5.09,5-5.09-5,5.09-5.15Zm190.66,9.43,4.69,4.74-4.69,4.76-4.68-4.76,4.68-4.74Zm-54.47,9.5-4.69-4.76,4.69-4.75,4.69,4.75-4.69,4.76ZM1296,697.13l5.09,5.15-5.09,5-5.09-5,5.09-5.15Zm-54.48,0,5.09,5.15-5.09,5-5.09-5,5.09-5.15Zm136.18,18.93L1373,711.3l4.69-4.75,4.69,4.75-4.69,4.76Zm27.24-18.93,5.09,5.15-5.09,5-5.09-5,5.09-5.15Zm-54.48,0,5.1,5.15-5.1,5-5.09-5,5.09-5.15Zm190.6,9.42,4.67,4.74-4.67,4.76-4.69-4.76,4.69-4.74Zm-54.48,9.5-4.69-4.76,4.69-4.75,4.69,4.75-4.69,4.76Zm27.24-18.93,5.09,5.16-5.09,4.94-5.09-4.94,5.09-5.16Zm-54.48,0,5.09,5.15-5.09,5-5.09-5,5.09-5.15Zm108.94,0,5.09,5.15-5.09,5-5.09-5,5.09-5.15ZM560.77,706.58l4.65,4.71L560.76,716l-4.64-4.72,4.65-4.72Zm-217.86,0,4.69,4.75-4.69,4.76-4.69-4.76,4.69-4.75Zm-108.94,0,4.68,4.74L234,716.06l-4.69-4.76,4.69-4.74Zm-54.47,9.5-4.69-4.76,4.69-4.75,4.69,4.75-4.69,4.76Zm27.23-18.93,5.1,5.15-5.1,5-5.09-5,5.09-5.15Zm-54.47,0,5.09,5.15-5.09,5-5.09-5,5.09-5.15Zm136.18,18.93-4.69-4.76,4.69-4.75,4.69,4.75-4.69,4.76Zm27.24-18.93,5.09,5.15-5.09,5-5.09-5,5.09-5.15Zm-54.48,0,5.09,5.15-5.09,5-5.09-5,5.09-5.15Zm190.66,9.43,4.68,4.74-4.68,4.76-4.69-4.76,4.69-4.74Zm-54.47,9.5-4.69-4.76,4.69-4.75,4.69,4.75-4.69,4.76Zm27.24-18.93,5.09,5.15-5.09,5-5.09-5,5.09-5.15Zm-54.48,0,5.09,5.15-5.09,5-5.09-5,5.09-5.15Zm136.18,18.93-4.69-4.76,4.69-4.75L511,711.3l-4.69,4.76Zm27.24-18.93,5.09,5.15-5.09,5-5.09-5,5.09-5.15Zm-54.48,0,5.09,5.15-5.09,5-5.09-5,5.09-5.15Zm299.53,9.41,4.69,4.75-4.69,4.76-4.69-4.76,4.69-4.75Zm-108.94,0,4.68,4.74-4.68,4.76L665,711.29l4.69-4.74Zm-54.47,9.5-4.69-4.76,4.69-4.75,4.68,4.75-4.68,4.76Zm27.23-18.93,5.1,5.16-5.1,4.94-5.09-4.94,5.09-5.16Zm-54.47,0,5.09,5.15-5.09,5-5.09-5,5.09-5.15Zm136.18,18.93-4.69-4.76,4.69-4.75,4.69,4.75-4.69,4.76Zm27.24-18.93,5.09,5.16-5.09,4.94-5.09-4.94,5.09-5.16Zm-54.48,0,5.09,5.15-5.09,5-5.09-5,5.09-5.15Zm190.66,9.43,4.68,4.74-4.68,4.76-4.69-4.76,4.69-4.74Zm-54.47,9.5-4.69-4.76,4.69-4.75,4.69,4.75-4.69,4.76Zm27.24-18.93,5.09,5.16-5.09,4.94-5.1-4.94,5.1-5.16Zm-54.48,0,5.09,5.15-5.09,5-5.09-5,5.09-5.15ZM942,716.05l-4.69-4.76,4.69-4.75,4.69,4.75L942,716.05Zm27.24-18.93,5.09,5.16-5.09,4.94-5.09-4.94,5.09-5.16Zm-54.48,0,5.09,5.15-5.09,5-5.09-5,5.09-5.15Z" transform="translate(-91.88 -209.93)" fill="#e30613" fill-rule="evenodd"/></svg>