<svg width="188" height="24" viewBox="0 0 188 24" fill="none" xmlns="http://www.w3.org/2000/svg">
<path d="M48.1805 5.45459L40.9262 19.0482C40.1914 20.5191 39.1052 21.7865 37.7636 22.7383C36.5517 23.5686 35.1147 24.0088 33.6453 23.9999C32.4387 23.9904 31.2457 23.7446 30.1338 23.2763L31.5559 18.8928C32.1592 19.0763 32.7838 19.1807 33.414 19.2035C33.8056 19.2113 34.1941 19.1324 34.5516 18.9724C34.908 18.7895 35.2199 18.5308 35.4655 18.2147L28.5449 5.45459H34.9915L38.5789 13.0659L42.2951 5.45459H48.1805Z" fill="#EE2325"/>
<path d="M71.6582 5.62231C73.1496 6.42323 74.3955 7.63477 75.2572 9.12186C76.1102 10.6623 76.5588 12.4049 76.5588 14.1781C76.5588 15.9512 76.1102 17.6938 75.2572 19.2343C74.3945 20.7215 73.1489 21.9341 71.6582 22.7377C70.0679 23.5935 68.2952 24.027 66.5009 23.9988C64.9599 24.0171 63.4324 23.7015 62.0175 23.0727C60.7036 22.4865 59.5359 21.6012 58.6023 20.4835C57.6776 19.3784 57.0214 18.0627 56.688 16.6451H55.3058V23.5693H49.2871V4.79078H55.3326V11.447H56.7684C57.1287 10.0684 57.7974 8.79574 58.721 7.73071C59.6585 6.65573 60.8157 5.80782 62.1094 5.24793C63.5042 4.64626 65.0041 4.3458 66.5163 4.36516C68.3053 4.33596 70.073 4.76814 71.6582 5.62231ZM68.4536 18.2963C69.058 17.8966 69.5409 17.3298 69.8472 16.6608C70.1829 15.8787 70.3563 15.0331 70.3563 14.1781C70.3563 13.323 70.1829 12.4774 69.8472 11.6953C69.5409 11.0263 69.058 10.4596 68.4536 10.0598C67.87 9.6786 67.192 9.47882 66.5009 9.48442C65.7999 9.4761 65.1113 9.67586 64.5177 10.0598C63.9132 10.4596 63.4303 11.0263 63.124 11.6953C62.7883 12.4774 62.6149 13.323 62.6149 14.1781C62.6149 15.0331 62.7883 15.8787 63.124 16.6608C63.4303 17.3298 63.9132 17.8966 64.5177 18.2963C65.1106 18.6819 65.7996 18.8818 66.5009 18.8717C67.1975 18.8822 67.8817 18.6821 68.4689 18.2963H68.4536Z" fill="#EE2325"/>
<path d="M92.9079 10.0151H87.6718V22.9091H81.7811V10.0151H76.5449V5.45459H92.8929L92.9079 10.0151Z" fill="#EE2325"/>
<path d="M99.0035 22.7495C97.4832 21.9591 96.2102 20.7513 95.3286 19.2626C94.4568 17.7159 93.998 15.9636 93.998 14.1801C93.998 12.3967 94.4568 10.6443 95.3286 9.09761C96.2102 7.60891 97.4832 6.40112 99.0035 5.61077C100.632 4.76344 102.44 4.33594 104.268 4.36575C105.915 4.33491 107.55 4.66407 109.061 5.33104C110.434 5.94705 111.632 6.90661 112.543 8.12051L108.616 11.6862C107.477 10.2205 106.133 9.48767 104.586 9.48767C104.005 9.46259 103.425 9.56302 102.885 9.78236C102.345 10.0017 101.857 10.335 101.452 10.7603C100.684 11.7284 100.265 12.9354 100.265 14.1801C100.265 15.4248 100.684 16.6319 101.452 17.6C101.856 18.0261 102.344 18.3599 102.885 18.5793C103.425 18.7987 104.005 18.8987 104.586 18.8726C106.133 18.8726 107.475 18.1398 108.613 16.6741L112.539 20.2437C111.626 21.456 110.429 22.4152 109.057 23.0332C107.545 23.6977 105.911 24.0267 104.264 23.9985C102.437 24.0262 100.631 23.5974 99.0035 22.7495Z" fill="#09428E"/>
<path d="M128.9 10.0151H123.67V22.9091H117.767V10.0151H112.537V5.45459H128.863L128.9 10.0151Z" fill="#09428E"/>
<path d="M143.622 6.2521C144.752 6.73423 145.715 7.53983 146.393 8.56852C147.07 9.5972 147.431 10.8035 147.431 12.037C147.431 13.2706 147.07 14.4768 146.393 15.5055C145.715 16.5342 144.752 17.3398 143.622 17.8219C142.295 18.3805 140.866 18.6526 139.428 18.6204H136.924V22.9091H131.068V5.45734H139.428C140.866 5.42398 142.295 5.69475 143.622 6.2521ZM140.842 13.5478C141.225 13.1399 141.439 12.6 141.439 12.0388C141.439 11.4777 141.225 10.9378 140.842 10.5299C140.334 10.1337 139.697 9.94174 139.056 9.99151H136.924V14.0825H139.056C139.697 14.1316 140.332 13.9411 140.842 13.5478Z" fill="#09428E"/>
<path d="M153.611 22.739C152.082 21.9301 150.801 20.7035 149.906 19.194C149.011 17.6844 148.537 15.9503 148.537 14.1819C148.537 12.4136 149.011 10.6795 149.906 9.16994C150.801 7.6604 152.082 6.43382 153.611 5.62488C155.258 4.79512 157.068 4.36377 158.903 4.36377C160.737 4.36377 162.547 4.79512 164.195 5.62488C165.722 6.43481 167.002 7.66174 167.896 9.17116C168.791 10.6806 169.264 12.4142 169.264 14.1819C169.264 15.9497 168.791 17.6833 167.896 19.1927C167.002 20.7022 165.722 21.9291 164.195 22.739C162.547 23.5688 160.737 24.0001 158.903 24.0001C157.068 24.0001 155.258 23.5688 153.611 22.739ZM160.974 18.2979C161.602 17.9017 162.112 17.3361 162.449 16.6626C162.809 15.8876 162.996 15.0392 162.996 14.18C162.996 13.3207 162.809 12.4724 162.449 11.6974C162.11 11.0247 161.601 10.4594 160.974 10.062C160.345 9.68508 159.63 9.48649 158.903 9.48649C158.175 9.48649 157.46 9.68508 156.831 10.062C156.203 10.4581 155.694 11.0238 155.357 11.6974C154.996 12.4724 154.809 13.3207 154.809 14.18C154.809 15.0392 154.996 15.8876 155.357 16.6626C155.693 17.3369 156.203 17.9028 156.831 18.2979C157.46 18.6749 158.175 18.8735 158.903 18.8735C159.63 18.8735 160.345 18.6749 160.974 18.2979Z" fill="#09428E"/>
<path d="M170.35 5.32417H176.175V14.4671L182.225 5.32417H187.803V22.9091H181.974V13.7883L175.95 22.9054H170.35V5.32417ZM174.869 3.23952C174.013 2.51881 173.586 1.43897 173.589 0H177.529C177.49 0.43829 177.61 0.876007 177.868 1.23234C178.031 1.37298 178.222 1.47835 178.427 1.54185C178.633 1.60535 178.85 1.62559 179.064 1.60131C179.281 1.6237 179.5 1.6026 179.709 1.53926C179.918 1.47591 180.113 1.37158 180.281 1.23234C180.558 0.884417 180.69 0.442971 180.65 0H184.586C184.586 1.44389 184.151 2.52373 183.28 3.23952C182.41 3.95531 181.004 4.31567 179.064 4.32059C177.121 4.31813 175.722 3.95654 174.869 3.23583V3.23952Z" fill="#09428E"/>
<path d="M17.0924 24C18.5986 24 19.8196 22.7789 19.8196 21.2727C19.8196 19.7665 18.5986 18.5454 17.0924 18.5454C15.5862 18.5454 14.3652 19.7665 14.3652 21.2727C14.3652 22.7789 15.5862 24 17.0924 24Z" fill="#09428E"/>
<path d="M26.9805 14.6731L25.1641 12.8574V6.76352C25.1631 6.4167 25.0248 6.08438 24.7795 5.83914C24.5342 5.59391 24.2017 5.4557 23.8548 5.4547C23.5078 5.4557 23.1754 5.59391 22.9301 5.83914C22.6847 6.08438 22.5465 6.4167 22.5455 6.76352V10.2398L18.2353 5.93132C18.082 5.778 17.8996 5.65685 17.6988 5.575C17.498 5.49315 17.2829 5.45225 17.066 5.4547C16.8422 5.45215 16.6201 5.49434 16.4128 5.57878C16.2055 5.66323 16.0172 5.78823 15.8589 5.94645L0.676915 21.1226C0.36218 21.4394 0.185547 21.8677 0.185547 22.3142C0.185547 22.7606 0.36218 23.189 0.676915 23.5057C0.83333 23.6624 1.01913 23.7867 1.22367 23.8716C1.42821 23.9564 1.64749 24 1.86893 24C2.09037 24 2.30964 23.9564 2.51418 23.8716C2.71872 23.7867 2.90452 23.6624 3.06093 23.5057L17.1342 9.43788L24.6759 16.9768C24.9817 17.2819 25.3962 17.4533 25.8282 17.4533C26.2603 17.4533 26.6747 17.2819 26.9805 16.9768C27.2857 16.6711 27.4572 16.2569 27.4572 15.825C27.4572 15.3931 27.2857 14.9788 26.9805 14.6731Z" fill="#09428E"/>
</svg>
