<?xml version="1.0" encoding="UTF-8"?> <svg xmlns="http://www.w3.org/2000/svg" width="104" height="24" viewBox="0 0 104 24" fill="none"><g clip-path="url(#clip0_3_5452)"><path d="M6.24625 4.39573C7.36467 3.76098 8.62044 3.44027 10.007 3.44027C12.1065 3.44027 13.8594 4.19528 15.2656 5.7053L15.3244 5.64517L16.9792 3.96143C16.1289 2.99261 15.1086 2.26432 13.9117 1.76989C12.7017 1.26878 11.3674 1.02156 9.90891 1.02156C8.04488 1.02156 6.3509 1.4425 4.84005 2.29105C3.3292 3.13292 2.14538 4.30218 1.29512 5.7788C0.438314 7.2621 0.0131836 8.92579 0.0131836 10.7833C0.0131836 12.6407 0.438314 14.3044 1.29512 15.7877C2.14538 17.271 3.3292 18.4336 4.82697 19.2755C6.33128 20.124 8.01218 20.5449 9.88275 20.5449C11.3413 20.5449 12.6821 20.291 13.8986 19.7833C15.102 19.2821 16.1289 18.5405 16.9857 17.5784L15.4879 16.0483L15.2721 15.8278C13.8463 17.3579 12.1 18.1196 10.0136 18.1196C8.62698 18.1196 7.37121 17.8055 6.25279 17.1641C5.13437 16.5294 4.25795 15.6541 3.62352 14.5316C2.9891 13.4158 2.67516 12.1663 2.67516 10.7833C2.67516 9.40018 2.9891 8.15074 3.62352 7.03492C4.25795 5.91911 5.13437 5.04383 6.25279 4.40241L6.24625 4.39573Z" fill="#0E0E10"></path><path d="M17.1948 5.86601V8.15777H22.3749V20.3114H24.9322V8.15777H27.8689L30.1123 5.86601H17.1948Z" fill="#0E0E10"></path><path d="M55.875 6.63427C54.8285 6.02625 53.6513 5.72559 52.3366 5.72559C51.022 5.72559 49.8774 6.03294 48.8375 6.65432C48.5432 6.82804 48.2685 7.02848 48.0068 7.24229V5.8659H45.4561V25.0151H48.0068V18.975C48.2619 19.1822 48.5301 19.3692 48.8179 19.543C49.8774 20.1643 51.0482 20.4717 52.3366 20.4717C53.6251 20.4717 54.8351 20.1643 55.875 19.543C56.9215 18.9216 57.7456 18.053 58.3539 16.9372C58.9621 15.8147 59.263 14.5318 59.263 13.0819C59.263 11.632 58.9621 10.3492 58.3539 9.2267C57.7456 8.1042 56.9215 7.24229 55.875 6.63427ZM56.1432 15.5207C55.7573 16.2289 55.2406 16.7768 54.58 17.171C53.9194 17.5652 53.1738 17.759 52.3432 17.759C51.5125 17.759 50.7865 17.5652 50.1194 17.171C49.4523 16.7768 48.929 16.2289 48.5562 15.5207C48.2358 14.9127 48.0526 14.2245 48.0068 13.4628V12.7011C48.0526 11.9394 48.2423 11.2579 48.5693 10.6565C48.9552 9.95498 49.4719 9.41378 50.1325 9.01957C50.7931 8.62536 51.5321 8.4316 52.3432 8.4316C53.1542 8.4316 53.9194 8.62536 54.58 9.00621C55.2406 9.38706 55.7638 9.93494 56.1432 10.6432C56.5291 11.3514 56.7187 12.1666 56.7187 13.0819C56.7187 13.9973 56.5291 14.8124 56.1432 15.5207Z" fill="#0E0E10"></path><path d="M40.3743 7.21533C40.1127 7.00153 39.838 6.80776 39.5437 6.63404C38.4972 6.02602 37.3199 5.72536 36.0053 5.72536C34.6906 5.72536 33.5461 6.03271 32.5061 6.65409C31.4597 7.27547 30.6356 8.13738 30.0273 9.24651C29.419 10.3556 29.1182 11.6318 29.1182 13.0817C29.1182 14.5316 29.4125 15.8144 30.0077 16.9369C30.6029 18.0594 31.4269 18.928 32.4865 19.5427C33.5461 20.1641 34.7168 20.4715 36.0053 20.4715C37.2937 20.4715 38.5037 20.1641 39.5437 19.5427C39.838 19.369 40.1127 19.1686 40.3743 18.9548V20.3111H42.9251V5.86567H40.3743V7.21533ZM39.8118 15.5205C39.4259 16.2287 38.9092 16.7766 38.2487 17.1708C37.5881 17.565 36.8425 17.7588 36.0118 17.7588C35.1812 17.7588 34.4552 17.565 33.7881 17.1708C33.1209 16.7766 32.5977 16.2287 32.2249 15.5205C31.8521 14.8122 31.6624 13.9971 31.6624 13.0817C31.6624 12.1663 31.8521 11.3579 32.238 10.6563C32.6239 9.95476 33.1406 9.41355 33.8011 9.01934C34.4617 8.62513 35.2008 8.43137 36.0118 8.43137C36.8228 8.43137 37.5881 8.62513 38.2487 9.00598C38.9092 9.38683 39.4325 9.93471 39.8118 10.643C40.1389 11.251 40.3285 11.9392 40.3743 12.7009V13.4559C40.3285 14.2176 40.1389 14.9058 39.8118 15.5138V15.5205Z" fill="#0E0E10"></path><path d="M59.9761 8.15777H65.1561V20.3114H67.7135V8.15777H70.6501L72.8935 5.86601H59.9761V8.15777Z" fill="#0E0E10"></path><path d="M103.771 9.74821C103.32 7.43641 102.208 5.31169 100.573 3.64131C98.9443 1.97093 96.8579 0.835071 94.5949 0.374047C92.3319 -0.0869778 89.9838 0.146875 87.8516 1.05556C85.7194 1.95757 83.8947 3.48763 82.6127 5.452C81.3308 7.41636 80.644 9.72149 80.644 12.0801C80.644 15.2404 81.8736 18.2805 84.0647 20.5121C86.2558 22.7504 89.2251 24.0066 92.3188 24.0066C94.6276 24.0066 96.884 23.305 98.8069 21.9954C100.73 20.6858 102.228 18.8217 103.111 16.6435C103.994 14.4654 104.229 12.0667 103.778 9.75489L103.771 9.74821ZM98.8135 18.7081C97.0868 20.4654 94.7518 21.4609 92.3188 21.4609C90.5005 21.4609 88.7215 20.913 87.2107 19.8774C85.6998 18.8484 84.5225 17.3785 83.8227 15.6614C83.1294 13.9442 82.9463 12.06 83.2995 10.236C83.6527 8.41191 84.5291 6.74153 85.8176 5.43195C87.0995 4.11569 88.7411 3.22705 90.5201 2.85957C92.2992 2.49877 94.1501 2.68585 95.831 3.39409C97.5119 4.10233 98.9443 5.305 99.958 6.84843C100.965 8.39186 101.508 10.2092 101.508 12.0667C101.508 14.5589 100.54 16.9442 98.8135 18.7014V18.7081Z" fill="#0E0E10"></path><path d="M92.5608 5.57919H87.9824L94.3332 12.0669L87.9824 18.5547H92.5608L98.9115 12.0669L96.6224 9.72841L92.5608 5.57919Z" fill="#0E0E10"></path></g><defs><clipPath id="clip0_3_5452"><rect width="104" height="24" fill="white"></rect></clipPath></defs></svg> 